<svg width="32" height="21" viewBox="0 0 32 21" fill="none" xmlns="http://www.w3.org/2000/svg">
<path d="M11.5367 1.25238C11.2814 0.710001 10.672 0.354492 10 0.354492C9.32803 0.354492 8.71858 0.710001 8.46333 1.25238L2.21248 14.3789L0.128862 18.7544C-0.225353 19.4973 0.175744 20.3496 1.02482 20.6595C1.87389 20.9695 2.84798 20.6185 3.2022 19.8756L4.85867 16.398H15.1413L16.7978 19.8756C17.152 20.6185 18.1261 20.9695 18.9752 20.6595C19.8243 20.3496 20.2254 19.4973 19.8711 18.7544L17.7875 14.3789L11.5367 1.25238ZM13.7505 13.481H6.24949L10 5.60509L13.7505 13.481Z" fill="black"/>
<path d="M30 16.7725C29.4696 16.7725 28.9609 16.9832 28.5858 17.3582C28.2107 17.7333 28 18.242 28 18.7725C28 19.3029 28.2107 19.8116 28.5858 20.1867C28.9609 20.5617 29.4696 20.7725 30 20.7725C31.11 20.7725 32 19.8825 32 18.7725C32 18.242 31.7893 17.7333 31.4142 17.3582C31.0391 16.9832 30.5304 16.7725 30 16.7725Z" fill="black"/>
</svg>
