<svg width="421" height="150" viewBox="0 0 421 150" fill="none" xmlns="http://www.w3.org/2000/svg">
<path d="M0.5 20.1304C0.5 9.08467 9.45431 0.130371 20.5 0.130371H400.5C411.546 0.130371 420.5 9.08468 420.5 20.1304V94.1304C420.5 105.176 411.546 114.13 400.5 114.13H20.5C9.4543 114.13 0.5 105.176 0.5 94.1304V20.1304Z" fill="#7FBABA"/>
<rect x="123.5" y="30.1304" width="50" height="50" rx="25" fill="white"/>
<path d="M154.674 56.5076C154.674 57.3484 154.496 58.1073 154.138 58.7844C153.789 59.454 153.32 60.0232 152.732 60.492C152.144 60.9607 151.464 61.3216 150.69 61.5746C149.923 61.8275 149.124 61.954 148.29 61.954H148.179C147.353 61.9317 146.571 61.835 145.835 61.6639C145.106 61.5002 144.451 61.2732 143.871 60.983C143.29 60.6929 142.799 60.3506 142.397 59.9563C142.003 59.5545 141.735 59.108 141.594 58.617C141.504 58.297 141.46 57.9845 141.46 57.6795C141.46 57.367 141.512 57.0917 141.616 56.8536C141.72 56.608 141.858 56.4072 142.029 56.2509C142.208 56.0872 142.412 55.9644 142.643 55.8826C142.874 55.7933 143.119 55.745 143.379 55.7375C143.692 55.7375 143.986 55.8082 144.261 55.9496C144.536 56.0909 144.775 56.2881 144.975 56.5411C145.176 56.7941 145.333 57.0954 145.444 57.4451C145.563 57.7874 145.623 58.1631 145.623 58.5723C145.623 58.922 145.664 59.2717 145.746 59.6214C145.835 59.9637 145.976 60.2762 146.17 60.5589C146.371 60.8417 146.635 61.0761 146.962 61.2621C147.289 61.4406 147.695 61.5336 148.179 61.5411C148.536 61.556 148.859 61.4444 149.15 61.2063C149.447 60.9682 149.7 60.6519 149.908 60.2576C150.117 59.8633 150.277 59.4131 150.388 58.9072C150.5 58.3938 150.556 57.8692 150.556 57.3335C150.556 56.7234 150.47 56.143 150.299 55.5924C150.128 55.0418 149.871 54.5619 149.529 54.1527C149.194 53.736 148.77 53.4086 148.257 53.1705C147.751 52.925 147.163 52.8022 146.493 52.8022C146.225 52.8022 145.939 52.8283 145.634 52.8804C145.329 52.9325 145.005 53.0255 144.663 53.1594C144.328 53.2933 143.975 53.4756 143.603 53.7063C143.231 53.9295 142.844 54.2159 142.442 54.5656L144.06 46.0835L153.893 45.771L153.938 49.6103L143.904 49.5433L143.134 53.2375C143.402 52.9771 143.681 52.7464 143.971 52.5455C144.261 52.3447 144.548 52.1698 144.83 52.021C145.121 51.8722 145.403 51.7457 145.679 51.6415C145.961 51.5374 146.225 51.4518 146.471 51.3848C147.051 51.2286 147.621 51.1319 148.179 51.0947C149.19 51.1095 150.098 51.2546 150.902 51.5299C151.705 51.7978 152.386 52.1698 152.944 52.646C153.502 53.1147 153.93 53.6802 154.228 54.3424C154.525 54.9972 154.674 55.7189 154.674 56.5076Z" fill="#7FBABA"/>
<path d="M203.82 52.4904H211.22V54.4904H203.82V52.4904ZM198.9 63.5704H216.18V65.5304H198.9V63.5704ZM200.06 47.8904H205.66V49.8304H200.06V47.8904ZM204.9 47.8904H205.3L205.72 47.7904L207.28 48.5704C205.8 52.4904 202.64 55.3504 199.28 56.9704C198.96 56.4704 198.32 55.6504 197.84 55.2304C200.82 53.9704 203.8 51.2504 204.9 48.2904V47.8904ZM209.46 47.2104C210.84 50.4704 213.64 53.3704 217.12 54.6904C216.56 55.1704 215.86 56.0704 215.5 56.6904C211.82 55.0104 209.08 51.8104 207.42 47.8504L209.46 47.2104ZM199.1 51.4904L200.38 50.1704C201.28 50.6704 202.38 51.4504 202.9 52.0504L201.56 53.5104C201.04 52.9104 199.96 52.0504 199.1 51.4904ZM212.54 47.3304L214.34 48.6104C213.24 49.5504 211.94 50.5304 210.94 51.1704L209.5 50.0504C210.46 49.3704 211.78 48.2104 212.54 47.3304ZM214.8 49.6704L216.56 50.9104C215.42 51.9104 214.04 52.9504 212.98 53.6104L211.54 52.4904C212.58 51.7704 213.98 50.5904 214.8 49.6704ZM204 57.5504V59.3104H210.84V57.5504H204ZM201.66 55.6304H213.32V61.2104H201.66V55.6304ZM202.82 61.4704L205.02 60.9104C205.54 61.6304 205.98 62.6504 206.16 63.3304L203.86 63.9904C203.72 63.3104 203.28 62.2504 202.82 61.4704ZM209.96 60.8904L212.28 61.3904C211.78 62.3704 211.32 63.2704 210.92 63.9104L208.82 63.4304C209.22 62.7304 209.72 61.6504 209.96 60.8904ZM235.02 56.1504L236.9 57.2904C236.06 58.2104 235.18 59.1704 234.46 59.8104L232.96 58.8104C233.62 58.1104 234.52 56.9704 235.02 56.1504ZM226.12 57.4504L227.68 56.4304C228.5 57.1704 229.38 58.2104 229.76 58.9704L228.08 60.0904C227.76 59.3304 226.9 58.2304 226.12 57.4504ZM226.98 47.8304H235.24V54.8504H233.02V49.7904H226.98V47.8304ZM227.42 50.8504H234.28V52.6904H227.42V50.8504ZM226.02 53.7104H236.74V55.7504H226.02V53.7104ZM230.14 54.7504H232.36V63.6704C232.36 64.6504 232.24 65.2304 231.6 65.5704C231 65.9104 230.2 65.9304 229.1 65.9304C229.04 65.3304 228.78 64.4704 228.52 63.8704C229.08 63.8904 229.68 63.8904 229.88 63.8904C230.08 63.8904 230.14 63.8304 230.14 63.6104V54.7504ZM225.44 62.6504C226.46 62.0704 227.96 61.1304 229.44 60.1704L230.16 61.9704C228.98 62.8704 227.68 63.8104 226.54 64.5704L225.44 62.6504ZM232.3 56.1704C232.94 58.5504 234.46 61.5304 237.2 62.9304C236.72 63.3504 236 64.2904 235.66 64.8904C233.04 63.2104 231.6 59.7704 230.98 57.4504L232.3 56.1704ZM219.5 52.1304H225.42V54.1304H219.5V52.1304ZM218.54 55.5904H225.84V57.6304H218.54V55.5904ZM218.74 58.7504L220.26 58.3704C220.6 59.4904 220.88 60.8904 220.98 61.8504L219.36 62.2704C219.32 61.3104 219.04 59.8704 218.74 58.7504ZM218.32 63.3304C220.22 63.0504 223.06 62.5304 225.76 62.0504L225.94 64.0304C223.44 64.5504 220.8 65.1104 218.78 65.5104L218.32 63.3304ZM224.28 58.2104L226 58.6304C225.64 59.7704 225.32 61.0304 225.02 61.8704L223.58 61.4704C223.84 60.5704 224.14 59.1704 224.28 58.2104ZM221.28 52.9304H223.34V63.7104L221.28 64.0704V52.9304ZM221.18 47.1504H222.44V47.5904H223.12V48.2104C222.34 49.7304 221.12 51.7904 219.14 53.5904C218.82 53.1104 218.14 52.3504 217.7 52.0304C219.38 50.5904 220.56 48.7104 221.18 47.1504ZM221.48 47.1504H223.16C224.32 48.1504 225.8 49.5904 226.52 50.6104L224.98 52.4504C224.34 51.4304 222.98 49.7504 221.9 48.8504H221.48V47.1504ZM247.22 48.0904C247.06 48.8304 246.8 50.0104 246.24 51.4504C245.82 52.4304 245.24 53.5704 244.68 54.3704C245.22 54.1304 246.28 53.9904 246.96 53.9904C248.62 53.9904 249.88 54.9704 249.88 56.8304C249.88 57.9104 249.94 60.0904 249.96 61.3504H247.56C247.64 60.4104 247.68 58.7104 247.66 57.6304C247.66 56.3504 246.86 55.9304 246.02 55.9304C244.92 55.9304 243.66 56.5904 242.9 57.3104C242.3 57.9104 241.74 58.6304 241.06 59.5104L238.92 57.9104C241.48 55.5504 243.02 53.3904 243.86 51.1904C244.26 50.1104 244.52 48.8904 244.58 47.8704L247.22 48.0904ZM239.68 49.9504C240.7 50.0904 242.18 50.1704 243.2 50.1704C245.84 50.1704 249.46 50.0304 252.36 49.5104L252.34 51.8304C249.52 52.2304 245.5 52.4104 243.06 52.4104C242.24 52.4104 240.78 52.3704 239.68 52.2704V49.9504ZM255.52 55.6304C254.9 55.8104 253.82 56.2104 253.14 56.4704C251.84 56.9704 250.04 57.6904 248.16 58.6504C246.34 59.5904 245.36 60.4504 245.36 61.5504C245.36 62.6504 246.32 62.9504 248.26 62.9504C249.96 62.9504 252.2 62.7304 253.96 62.3704L253.88 64.9504C252.54 65.1304 250.1 65.3104 248.2 65.3104C245.08 65.3104 242.74 64.5304 242.74 61.9504C242.74 59.1704 245.6 57.5304 248 56.3304C249.84 55.3704 251.1 54.8904 252.3 54.3304C253.08 53.9904 253.78 53.6704 254.54 53.2904L255.52 55.6304ZM262.26 52.8304H272.64V54.9904H262.26V52.8304ZM258.54 56.4304H276.46V58.6904H258.54V56.4304ZM263.38 58.2304H265.98C265.6 61.9504 264.64 64.5904 259.36 65.9904C259.12 65.3504 258.5 64.3504 257.96 63.8504C262.54 62.8304 263.08 60.9704 263.38 58.2304ZM268.54 57.8504H270.96V62.7304C270.96 63.3704 271.08 63.4704 271.78 63.4704C272.1 63.4704 273.4 63.4704 273.78 63.4704C274.44 63.4704 274.56 63.1304 274.64 61.0304C275.12 61.4104 276.16 61.7904 276.78 61.9504C276.54 64.8704 275.9 65.6304 274 65.6304C273.54 65.6304 271.9 65.6304 271.44 65.6304C269.1 65.6304 268.54 64.9304 268.54 62.7704V57.8504ZM266.16 47.1704H268.72V50.7904H266.16V47.1704ZM258.9 49.0904H276.08V53.8504H273.5V51.3504H261.34V53.8504H258.9V49.0904ZM286.34 53.9904H288.88V63.1504C288.88 64.5104 288.54 65.1704 287.54 65.5304C286.56 65.8904 285.12 65.9304 283.2 65.9304C283.06 65.2304 282.6 64.1504 282.22 63.4904C283.64 63.5504 285.28 63.5504 285.74 63.5504C286.18 63.5504 286.34 63.4304 286.34 63.0904V53.9904ZM279.5 48.5504H293.48V50.9104H279.5V48.5504ZM292.58 48.5504H293.22L293.8 48.3904L295.68 49.7904C293.88 51.9904 291.24 54.5304 288.78 56.0704C288.4 55.5504 287.62 54.7504 287.14 54.3704C289.22 53.0504 291.58 50.6504 292.58 49.1304V48.5504Z" fill="white"/>
<path d="M98.5 149.63L72.5192 112.13H124.481L98.5 149.63Z" fill="#7FBABA"/>
</svg>
