<svg width="421" height="152" viewBox="0 0 421 152" fill="none" xmlns="http://www.w3.org/2000/svg">
<path d="M0.5 20.9619C0.5 9.91622 9.45431 0.961914 20.5 0.961914H400.5C411.546 0.961914 420.5 9.91622 420.5 20.9619V94.9619C420.5 106.008 411.546 114.962 400.5 114.962H20.5C9.4543 114.962 0.5 106.008 0.5 94.9619V20.9619Z" fill="#7FBABA"/>
<rect x="93.5" y="30.9619" width="50" height="50" rx="25" fill="white"/>
<path d="M115.708 62.2833H118.475V57.0266H111.277L122.672 45.8659V56.6137H124.67V57.0266H122.672V62.2833H124.67V62.6851H115.708V62.2833ZM118.475 50.5088C117.441 51.5133 116.414 52.5214 115.395 53.5333C114.376 54.5452 113.33 55.572 112.259 56.6137H118.475V50.5088Z" fill="#7FBABA"/>
<path d="M174.08 57.5019C176.14 61.4419 180.5 63.7419 186.94 64.4619C186.4 65.0219 185.74 66.1219 185.4 66.8019C178.66 65.8419 174.42 63.1619 171.82 58.2819L174.08 57.5019ZM169.86 55.3219H182.68V57.6619H169.86V55.3219ZM168.88 50.6219H186.02V53.0019H168.88V50.6219ZM176.18 47.9819H178.68V56.3819H176.18V47.9819ZM181.9 55.3219H182.42L182.84 55.2419L184.52 56.2019C182.12 62.6819 176.3 65.6019 169.36 66.7619C169.14 66.1219 168.52 64.9819 168.06 64.4419C174.78 63.5619 180.08 61.2019 181.9 55.7619V55.3219ZM199.04 48.5019L201.68 48.9219C200.86 54.3419 199.44 60.6619 198.18 64.7819L195.9 64.3019C197.14 60.1419 198.48 53.6219 199.04 48.5019ZM193.98 63.8219C196.64 63.6019 200.9 63.1219 204.86 62.6419L204.94 64.8819C201.28 65.4419 197.34 65.9619 194.52 66.3419L193.98 63.8219ZM201.3 57.7419L203.44 57.0019C204.94 59.8019 206.54 63.4619 207.12 65.8419L204.74 66.7419C204.28 64.4019 202.78 60.6419 201.3 57.7419ZM188.28 51.8019H196.04V54.0419H188.28V51.8019ZM191.12 47.9619H193.48V64.1219C193.48 65.3419 193.24 65.9619 192.54 66.3219C191.8 66.7019 190.76 66.7619 189.24 66.7619C189.14 66.1419 188.84 65.1419 188.54 64.5219C189.44 64.5619 190.42 64.5419 190.72 64.5419C191.02 64.5219 191.12 64.4219 191.12 64.1219V47.9619ZM187.98 58.0619C190.02 57.7419 193.16 57.1419 196.1 56.5619L196.28 58.6819C193.58 59.3019 190.68 59.9419 188.48 60.4219L187.98 58.0619ZM212.68 50.6819C212.54 51.3819 212.44 52.5619 212.44 53.1219C212.44 54.4219 212.44 55.9019 212.56 57.3619C212.84 60.2419 213.44 62.2219 214.7 62.2219C215.66 62.2219 216.44 59.8619 216.82 58.2819L218.84 60.7019C217.5 64.2019 216.26 65.4019 214.66 65.4019C212.44 65.4019 210.54 63.4419 209.98 58.0819C209.78 56.2419 209.76 53.8819 209.76 52.6619C209.76 52.1219 209.74 51.2619 209.6 50.6419L212.68 50.6819ZM222.68 51.1219C224.58 53.4219 226.12 58.4219 226.34 61.4819L223.7 62.5219C223.4 59.2819 222.32 54.4419 220.14 51.9619L222.68 51.1219ZM236.74 59.5019H243.66V61.2019H236.74V59.5019ZM234.28 49.3419H246.22V51.0619H234.28V49.3419ZM234.82 51.8619H245.66V53.4819H234.82V51.8619ZM233.66 54.3219H246.84V56.0419H233.66V54.3219ZM236.76 62.1019H243.7V63.7619H236.76V62.1019ZM235 56.8219H243.56V58.5619H237.22V66.7819H235V56.8219ZM243.22 56.8219H245.48V64.4619C245.48 65.5019 245.28 66.0819 244.56 66.4019C243.84 66.7419 242.86 66.7619 241.46 66.7619C241.38 66.1619 241.08 65.2819 240.82 64.7219C241.62 64.7619 242.58 64.7619 242.86 64.7419C243.12 64.7419 243.22 64.6619 243.22 64.4219V56.8219ZM238.98 47.9819H241.36V54.8819H238.98V47.9819ZM230.38 47.9819H232.54V66.7619H230.38V47.9819ZM228.66 51.9419L230.34 52.1419C230.3 53.8219 229.98 56.2219 229.58 57.7819L227.82 57.1819C228.26 55.8019 228.54 53.5619 228.66 51.9419ZM232.22 51.3219L233.7 50.7019C234.12 51.6219 234.64 52.8419 234.86 53.5819L233.3 54.3219C233.1 53.5419 232.62 52.2819 232.22 51.3219ZM258.8 55.7219H264.92V57.6219H258.8V55.7219ZM257.62 48.8219H264.98V50.9219H259.78V66.7619H257.62V48.8219ZM263.76 48.8219H265.98V52.6019C265.98 53.6219 265.78 54.2219 265 54.5419C264.22 54.8619 263.14 54.8819 261.66 54.8819C261.58 54.2619 261.28 53.4019 261 52.8219C261.98 52.8619 263.08 52.8619 263.36 52.8619C263.68 52.8419 263.76 52.7819 263.76 52.5619V48.8219ZM261.32 57.1219C262.32 60.4419 264.34 63.4619 267.16 64.8819C266.64 65.3219 265.94 66.1819 265.58 66.7819C262.62 65.0019 260.66 61.5819 259.52 57.5819L261.32 57.1219ZM264.22 55.7219H264.64L265.02 55.6219L266.46 56.1419C265.74 60.7019 263.9 64.5819 260.9 66.8019C260.54 66.2619 259.84 65.5619 259.32 65.1619C262.06 63.2619 263.72 59.8019 264.22 56.1819V55.7219ZM248.82 49.7619H256.5V51.7419H248.82V49.7619ZM248.68 61.0419H256.72V63.0619H248.68V61.0419ZM248.1 53.1219H257.24V55.1419H248.1V53.1219ZM248.5 57.4619H256.94V59.4819H248.5V57.4619ZM251.66 48.0419H253.88V53.8819H251.66V48.0419ZM251.66 58.3019H253.88V66.7019H251.66V58.3019ZM254.38 54.8419L256.36 55.3219C255.96 56.2419 255.62 57.1419 255.3 57.7619L253.6 57.2819C253.88 56.6019 254.22 55.5619 254.38 54.8419ZM249.36 55.3219L251.14 54.8819C251.52 55.6219 251.88 56.6619 251.96 57.2819L250.08 57.8019C250 57.1619 249.7 56.1219 249.36 55.3219ZM277.22 48.9219C277.06 49.6619 276.8 50.8419 276.24 52.2819C275.82 53.2619 275.24 54.4019 274.68 55.2019C275.22 54.9619 276.28 54.8219 276.96 54.8219C278.62 54.8219 279.88 55.8019 279.88 57.6619C279.88 58.7419 279.94 60.9219 279.96 62.1819H277.56C277.64 61.2419 277.68 59.5419 277.66 58.4619C277.66 57.1819 276.86 56.7619 276.02 56.7619C274.92 56.7619 273.66 57.4219 272.9 58.1419C272.3 58.7419 271.74 59.4619 271.06 60.3419L268.92 58.7419C271.48 56.3819 273.02 54.2219 273.86 52.0219C274.26 50.9419 274.52 49.7219 274.58 48.7019L277.22 48.9219ZM269.68 50.7819C270.7 50.9219 272.18 51.0019 273.2 51.0019C275.84 51.0019 279.46 50.8619 282.36 50.3419L282.34 52.6619C279.52 53.0619 275.5 53.2419 273.06 53.2419C272.24 53.2419 270.78 53.2019 269.68 53.1019V50.7819ZM285.52 56.4619C284.9 56.6419 283.82 57.0419 283.14 57.3019C281.84 57.8019 280.04 58.5219 278.16 59.4819C276.34 60.4219 275.36 61.2819 275.36 62.3819C275.36 63.4819 276.32 63.7819 278.26 63.7819C279.96 63.7819 282.2 63.5619 283.96 63.2019L283.88 65.7819C282.54 65.9619 280.1 66.1419 278.2 66.1419C275.08 66.1419 272.74 65.3619 272.74 62.7819C272.74 60.0019 275.6 58.3619 278 57.1619C279.84 56.2019 281.1 55.7219 282.3 55.1619C283.08 54.8219 283.78 54.5019 284.54 54.1219L285.52 56.4619ZM292.08 49.1019H297.74V51.5419H292.08V49.1019ZM296.56 49.1019H299.04C299.04 52.9019 299.58 60.2619 307 64.6019C306.44 65.0419 305.48 66.1019 305.06 66.7019C297.44 62.1219 296.56 53.1819 296.56 49.1019ZM295.7 53.4819L298.46 53.9819C297.06 59.9219 294.4 64.2219 290.22 66.7419C289.78 66.2219 288.66 65.2219 288.04 64.7819C292.22 62.6619 294.62 58.7819 295.7 53.4819ZM309 52.1419H324.32V54.6019H309V52.1419ZM323.34 52.1419H325.84C325.84 52.1419 325.82 52.9619 325.78 53.3019C325.38 61.3019 324.98 64.3419 324.08 65.4019C323.5 66.1619 322.92 66.3819 322.04 66.5019C321.28 66.6219 320.04 66.6019 318.82 66.5419C318.78 65.8419 318.44 64.7619 317.98 64.0619C319.26 64.1619 320.44 64.1819 320.98 64.1819C321.38 64.1819 321.62 64.1019 321.9 63.8419C322.6 63.1619 323 60.0019 323.34 52.6219V52.1419ZM315.14 48.0219H317.68V52.1419C317.68 56.6819 317.04 63.0219 310.24 66.8619C309.86 66.2819 308.96 65.3419 308.36 64.9219C314.58 61.5419 315.14 56.0019 315.14 52.1419V48.0219Z" fill="white"/>
<path d="M98.5 151.462L72.5192 113.962H124.481L98.5 151.462Z" fill="#7FBABA"/>
</svg>
