<svg width="421" height="151" viewBox="0 0 421 151" fill="none" xmlns="http://www.w3.org/2000/svg">
<path d="M0.5 20.9619C0.5 9.91622 9.45431 0.961914 20.5 0.961914H400.5C411.546 0.961914 420.5 9.91622 420.5 20.9619V94.9619C420.5 106.008 411.546 114.962 400.5 114.962H20.5C9.4543 114.962 0.5 106.008 0.5 94.9619V20.9619Z" fill="#7FBABA"/>
<rect x="73.5" y="30.9619" width="50" height="50" rx="25" fill="white"/>
<path d="M104.763 59.2588C104.622 59.7796 104.417 60.2335 104.15 60.6204C103.882 60.9999 103.573 61.3272 103.223 61.6025C102.881 61.8704 102.509 62.0936 102.107 62.2722C101.705 62.4433 101.292 62.5772 100.868 62.674C100.452 62.7707 100.039 62.8377 99.6295 62.8749C99.2202 62.9121 98.8371 62.9269 98.4799 62.9195H98.3683C97.5424 62.8972 96.7612 62.8005 96.0246 62.6293C95.2954 62.4656 94.6369 62.2424 94.0491 61.9597C93.4688 61.6695 92.9814 61.3235 92.5871 60.9217C92.1927 60.5199 91.9249 60.0735 91.7835 59.5824C91.6868 59.2699 91.6384 58.9574 91.6384 58.6449C91.6384 58.3324 91.6905 58.0572 91.7946 57.8191C91.8988 57.5735 92.0365 57.3726 92.2076 57.2164C92.3862 57.0527 92.5908 56.9299 92.8214 56.8481C93.0521 56.7588 93.2976 56.7104 93.558 56.703C93.8705 56.703 94.1644 56.7737 94.4397 56.915C94.715 57.0564 94.9531 57.2536 95.154 57.5066C95.3549 57.7595 95.5112 58.0609 95.6228 58.4106C95.7418 58.7528 95.8013 59.1286 95.8013 59.5378C95.8013 59.8949 95.8423 60.2484 95.9241 60.5981C96.0134 60.9478 96.1548 61.264 96.3482 61.5467C96.5491 61.822 96.8132 62.049 97.1406 62.2275C97.468 62.4061 97.8772 62.4991 98.3683 62.5066H98.4576C98.785 62.4917 99.0975 62.3763 99.3951 62.1606C99.6927 61.9448 99.9531 61.6658 100.176 61.3235C100.4 60.9738 100.574 60.5832 100.701 60.1516C100.835 59.7127 100.902 59.2625 100.902 58.8012C100.902 58.3548 100.827 57.9158 100.679 57.4842C100.537 57.0452 100.299 56.6509 99.9643 56.3012C99.6369 55.9515 99.2091 55.6613 98.6808 55.4307C98.1525 55.1926 97.5052 55.0512 96.7388 55.0066C96.657 55.0066 96.5751 55.0066 96.4933 55.0066C96.4189 55.0066 96.3408 54.9991 96.2589 54.9842H96.2366L96.2589 54.5713H96.2813C96.378 54.5713 96.4673 54.5713 96.5491 54.5713C96.6384 54.5713 96.724 54.5787 96.8058 54.5936C97.5424 54.5862 98.1674 54.4746 98.6808 54.2588C99.1942 54.043 99.6071 53.7677 99.9196 53.4329C100.24 53.0906 100.47 52.7037 100.612 52.2722C100.76 51.8332 100.835 51.383 100.835 50.9217C100.835 50.453 100.768 49.9954 100.634 49.549C100.507 49.0951 100.333 48.6933 100.109 48.3436C99.8862 47.9939 99.6257 47.7149 99.3281 47.5066C99.0305 47.2908 98.7106 47.1866 98.3683 47.1941C97.8772 47.2089 97.468 47.3057 97.1406 47.4842C96.8132 47.6554 96.5491 47.8823 96.3482 48.165C96.1548 48.4403 96.0134 48.7528 95.9241 49.1025C95.8423 49.4522 95.8013 49.8057 95.8013 50.1628C95.8013 50.572 95.7418 50.9515 95.6228 51.3012C95.5112 51.6435 95.3549 51.9411 95.154 52.1941C94.9531 52.4396 94.715 52.633 94.4397 52.7744C94.1644 52.9158 93.8705 52.9827 93.558 52.9753C93.2976 52.9753 93.0521 52.9344 92.8214 52.8525C92.5908 52.7707 92.3862 52.6516 92.2076 52.4954C92.0365 52.3317 91.8988 52.1308 91.7946 51.8927C91.6905 51.6472 91.6384 51.3682 91.6384 51.0557C91.6384 50.758 91.6868 50.453 91.7835 50.1405C91.9249 49.6494 92.1927 49.203 92.5871 48.8012C92.9814 48.392 93.4688 48.0423 94.0491 47.7521C94.6369 47.4545 95.2954 47.2238 96.0246 47.0601C96.7612 46.889 97.5424 46.796 98.3683 46.7811H98.4799C98.8371 46.7811 99.2202 46.7997 99.6295 46.8369C100.039 46.8667 100.452 46.9336 100.868 47.0378C101.292 47.1345 101.705 47.2722 102.107 47.4508C102.509 47.6219 102.881 47.8451 103.223 48.1204C103.573 48.3883 103.882 48.7156 104.15 49.1025C104.417 49.482 104.622 49.9284 104.763 50.4418C104.823 50.6576 104.864 50.8734 104.886 51.0891C104.908 51.3049 104.92 51.5207 104.92 51.7365C104.92 52.4359 104.737 53.072 104.373 53.6449C104.008 54.2179 103.406 54.6717 102.565 55.0066C103.331 55.3339 103.908 55.7841 104.295 56.357C104.682 56.9225 104.875 57.5549 104.875 58.2543C104.875 58.4255 104.868 58.5966 104.853 58.7677C104.838 58.9388 104.808 59.1025 104.763 59.2588Z" fill="#7FBABA"/>
<path d="M148.36 53.9219H157.96V56.1419H148.36V53.9219ZM158.92 50.4019H161.26V61.6419H158.92V50.4019ZM152.18 49.9619H154.54V66.7419H152.18V49.9619ZM163.66 48.3619H166.04V63.8219C166.04 65.2419 165.76 65.9019 164.94 66.3019C164.1 66.6819 162.78 66.7619 160.94 66.7619C160.82 66.0619 160.44 64.9619 160.1 64.2819C161.42 64.3219 162.7 64.3219 163.12 64.3219C163.5 64.3219 163.66 64.2019 163.66 63.8219V48.3619ZM156.2 48.0619L157.92 49.9019C155.38 50.9019 151.86 51.5819 148.84 52.0019C148.74 51.4619 148.4 50.6219 148.12 50.1219C151.04 49.6819 154.26 48.9419 156.2 48.0619ZM152.16 54.9819L153.78 55.6819C152.78 58.6819 151.02 62.2619 149.14 64.2619C148.9 63.5419 148.3 62.5419 147.9 61.9019C149.62 60.2419 151.36 57.3219 152.16 54.9819ZM154.18 57.0019C154.96 57.5019 157.44 59.5819 158.02 60.1019L156.66 62.1619C155.78 61.0819 153.92 59.1419 152.94 58.2419L154.18 57.0019ZM171.7 49.3219H183.98V51.6019H171.7V49.3219ZM171.7 53.9219H184.02V56.1619H171.7V53.9219ZM171.66 58.6419H184.1V60.9019H171.66V58.6419ZM170.32 49.3219H172.7V56.5219C172.7 59.7019 172.3 64.2019 169.84 66.8819C169.46 66.4219 168.48 65.6219 167.96 65.3219C170.14 62.9019 170.32 59.3219 170.32 56.5019V49.3219ZM183.14 49.3219H185.52V63.9419C185.52 65.2219 185.24 65.8619 184.44 66.2419C183.6 66.6219 182.4 66.6619 180.58 66.6419C180.48 66.0019 180.12 64.9619 179.8 64.3419C180.94 64.4219 182.26 64.4019 182.62 64.4019C183 64.3819 183.14 64.2619 183.14 63.9219V49.3219ZM176.48 50.2219H178.92V66.5219H176.48V50.2219ZM200.56 48.8419C200.5 49.1819 200.44 50.2419 200.42 50.5619C200.36 51.8819 200.4 55.9619 200.42 57.5619L197.92 56.7219C197.92 55.4819 197.92 51.6419 197.84 50.5819C197.78 49.7819 197.7 49.1019 197.66 48.8419H200.56ZM189.24 51.3419C192.22 51.3419 197.5 51.1819 200 51.1819C202.04 51.1819 205.08 51.1619 206.2 51.1819L206.16 53.5419C204.92 53.4819 202.88 53.4219 199.94 53.4219C196.3 53.4219 192.32 53.5819 189.3 53.7419L189.24 51.3419ZM200.08 57.2619C200.08 60.5219 198.88 62.1419 196.58 62.1419C195.04 62.1419 193.12 60.9219 193.12 58.4819C193.12 56.2219 194.96 54.7419 197.12 54.7419C199.76 54.7419 201.14 56.6819 201.14 59.1619C201.14 61.7819 199.6 65.0819 194.72 66.4619L192.6 64.3419C196 63.6019 198.66 62.2619 198.66 58.7619C198.66 57.4619 197.96 56.8419 197.08 56.8419C196.3 56.8419 195.52 57.3819 195.52 58.4419C195.52 59.3419 196.26 59.9219 197.08 59.9219C198.02 59.9219 198.84 59.1219 198.2 56.7419L200.08 57.2619ZM211.9 49.7419C212.46 49.8019 213.14 49.8419 213.7 49.8419C214.78 49.8419 219.04 49.7419 220.18 49.6419C221.02 49.5819 221.48 49.5019 221.72 49.4219L223 51.2219C222.54 51.5219 222.06 51.8019 221.62 52.1419C220.54 52.9019 218.44 54.6619 217.16 55.6619C217.84 55.4819 218.44 55.4419 219.06 55.4419C222.46 55.4419 225.04 57.5619 225.04 60.4619C225.04 63.6219 222.64 66.1219 217.8 66.1219C215.02 66.1219 212.92 64.8619 212.92 62.8419C212.92 61.2219 214.4 59.7419 216.52 59.7419C219.26 59.7419 220.78 61.5819 220.84 63.7819L218.5 64.0819C218.46 62.6419 217.7 61.6419 216.52 61.6419C215.78 61.6419 215.28 62.1019 215.28 62.6219C215.28 63.3619 216.1 63.8619 217.32 63.8619C220.7 63.8619 222.42 62.5819 222.42 60.4419C222.42 58.6219 220.62 57.4019 218.28 57.4019C215.2 57.4019 213.22 59.0419 211.08 61.4619L209.26 59.5819C210.68 58.4619 213.1 56.4219 214.26 55.4419C215.38 54.5219 217.48 52.8419 218.46 51.9619C217.44 52.0019 214.68 52.1019 213.6 52.1819C213.06 52.2219 212.44 52.2619 211.98 52.3419L211.9 49.7419ZM243.56 50.3019C243.56 50.9419 244.08 51.4619 244.72 51.4619C245.36 51.4619 245.88 50.9419 245.88 50.3019C245.88 49.6619 245.36 49.1419 244.72 49.1419C244.08 49.1419 243.56 49.6619 243.56 50.3019ZM242.32 50.3019C242.32 48.9819 243.4 47.9019 244.72 47.9019C246.04 47.9019 247.12 48.9819 247.12 50.3019C247.12 51.6219 246.04 52.7019 244.72 52.7019C243.4 52.7019 242.32 51.6219 242.32 50.3019ZM244.76 51.8819C244.56 52.2619 244.42 52.8419 244.32 53.2619C243.86 55.2219 242.98 58.3419 241.3 60.5619C239.5 62.9619 236.84 64.9419 233.26 66.0819L231.08 63.6819C235.06 62.7619 237.32 61.0219 238.92 59.0019C240.26 57.3419 241.02 55.0619 241.28 53.3419C240.06 53.3419 233.46 53.3419 231.96 53.3419C231.04 53.3419 230.1 53.4019 229.58 53.4419V50.6019C230.18 50.6819 231.3 50.7819 231.96 50.7819C233.46 50.7819 240.1 50.7819 241.22 50.7819C241.62 50.7819 242.26 50.7619 242.78 50.6219L244.76 51.8819ZM251.96 49.6219C252.5 49.7019 253.36 49.7419 254.04 49.7419C255.3 49.7419 260.56 49.7419 261.72 49.7419C262.36 49.7419 263.34 49.7019 263.88 49.6219V52.2219C263.36 52.1819 262.42 52.1419 261.68 52.1419C260.58 52.1419 255.22 52.1419 254.04 52.1419C253.38 52.1419 252.54 52.1619 251.96 52.2219V49.6219ZM265.58 55.4419C265.44 55.7019 265.26 56.0619 265.2 56.2619C264.58 58.2019 263.72 60.1619 262.24 61.8019C260.22 64.0619 257.66 65.4019 255.1 66.1419L253.1 63.8819C256.12 63.2419 258.5 61.9419 260.04 60.3619C261.1 59.2819 261.74 58.0219 262.08 56.9219C261.08 56.9219 254.22 56.9219 252.44 56.9219C251.94 56.9219 250.94 56.9419 250.1 57.0019V54.4019C250.96 54.4819 251.8 54.5419 252.44 54.5419C253.8 54.5419 260.96 54.5419 262.32 54.5419C262.98 54.5419 263.52 54.4619 263.8 54.3219L265.58 55.4419ZM272.32 49.7619C273.7 50.7019 276.3 52.7819 277.48 54.0019L275.44 56.0819C274.4 54.9619 271.88 52.7819 270.42 51.7819L272.32 49.7619ZM269.8 63.0819C272.94 62.6419 275.52 61.6219 277.46 60.4819C280.88 58.4419 283.48 55.4019 284.76 52.7019L286.3 55.5019C284.8 58.2219 282.14 60.9819 278.92 62.9219C276.88 64.1419 274.3 65.2419 271.5 65.7219L269.8 63.0819ZM297.22 48.9219C297.06 49.6619 296.8 50.8419 296.24 52.2819C295.82 53.2619 295.24 54.4019 294.68 55.2019C295.22 54.9619 296.28 54.8219 296.96 54.8219C298.62 54.8219 299.88 55.8019 299.88 57.6619C299.88 58.7419 299.94 60.9219 299.96 62.1819H297.56C297.64 61.2419 297.68 59.5419 297.66 58.4619C297.66 57.1819 296.86 56.7619 296.02 56.7619C294.92 56.7619 293.66 57.4219 292.9 58.1419C292.3 58.7419 291.74 59.4619 291.06 60.3419L288.92 58.7419C291.48 56.3819 293.02 54.2219 293.86 52.0219C294.26 50.9419 294.52 49.7219 294.58 48.7019L297.22 48.9219ZM289.68 50.7819C290.7 50.9219 292.18 51.0019 293.2 51.0019C295.84 51.0019 299.46 50.8619 302.36 50.3419L302.34 52.6619C299.52 53.0619 295.5 53.2419 293.06 53.2419C292.24 53.2419 290.78 53.2019 289.68 53.1019V50.7819ZM305.52 56.4619C304.9 56.6419 303.82 57.0419 303.14 57.3019C301.84 57.8019 300.04 58.5219 298.16 59.4819C296.34 60.4219 295.36 61.2819 295.36 62.3819C295.36 63.4819 296.32 63.7819 298.26 63.7819C299.96 63.7819 302.2 63.5619 303.96 63.2019L303.88 65.7819C302.54 65.9619 300.1 66.1419 298.2 66.1419C295.08 66.1419 292.74 65.3619 292.74 62.7819C292.74 60.0019 295.6 58.3619 298 57.1619C299.84 56.2019 301.1 55.7219 302.3 55.1619C303.08 54.8219 303.78 54.5019 304.54 54.1219L305.52 56.4619ZM312.54 55.7819V63.1419H310.3V58.0019H308.22V55.7819H312.54ZM312.54 62.2219C313.32 63.5819 314.78 64.1619 316.84 64.2619C319.32 64.3619 324.24 64.3019 327.08 64.0819C326.82 64.6019 326.46 65.6619 326.36 66.3219C323.8 66.4419 319.36 66.4819 316.86 66.3819C314.42 66.2819 312.78 65.6819 311.58 64.1219C310.82 64.9219 310.02 65.6819 309.08 66.5819L307.94 64.2819C308.74 63.7219 309.7 62.9619 310.54 62.2219H312.54ZM308.1 49.6419L309.98 48.4419C311.04 49.4019 312.28 50.7619 312.82 51.7419L310.78 53.0819C310.32 52.1219 309.12 50.6619 308.1 49.6419ZM313.76 56.1619H326.02V57.9019H313.76V56.1619ZM313.16 59.2419H326.64V61.0219H313.16V59.2419ZM316.42 55.1019H318.68V60.1019H316.42V55.1019ZM321 55.1019H323.28V60.1019H321V55.1019ZM314.3 50.9419H317.22V50.1019H313.42V48.6019H319.24V52.4619H314.3V50.9419ZM313.7 50.9419H315.68V52.8819C315.68 53.3019 315.76 53.3819 316.28 53.3819C316.5 53.3819 317.52 53.3819 317.82 53.3819C318.22 53.3819 318.3 53.2619 318.38 52.6019C318.74 52.8619 319.5 53.1219 320.04 53.2219C319.84 54.5819 319.3 54.9619 318.08 54.9619C317.7 54.9619 316.36 54.9619 315.98 54.9619C314.2 54.9619 313.7 54.5019 313.7 52.9019V50.9419ZM320.88 50.9419H323.82V50.1019H319.92V48.6019H325.86V52.4619H320.88V50.9419ZM320.28 50.9419H322.26V52.8819C322.26 53.3019 322.36 53.3819 322.88 53.3819C323.12 53.3819 324.18 53.3819 324.48 53.3819C324.9 53.3819 324.98 53.2619 325.06 52.5819C325.42 52.8419 326.18 53.0819 326.72 53.2019C326.52 54.5819 325.98 54.9619 324.74 54.9619C324.36 54.9619 322.96 54.9619 322.58 54.9619C320.78 54.9619 320.28 54.5019 320.28 52.8819V50.9419ZM320.66 61.8619L322.42 60.8819C323.86 61.5419 325.62 62.5019 326.62 63.1819L324.14 64.0819C323.4 63.4419 321.98 62.5419 320.66 61.8619ZM317.16 60.8819L319.26 61.6219C318.22 62.5819 316.54 63.5019 315.16 64.0619C314.78 63.6619 313.92 62.9419 313.42 62.6219C314.82 62.2019 316.3 61.5619 317.16 60.8819ZM336.46 49.0819H338.86V55.9219C338.86 59.2219 338.42 63.9819 335.68 66.7819C335.3 66.3019 334.32 65.4419 333.82 65.1419C336.26 62.6219 336.46 58.8419 336.46 55.9019V49.0819ZM342.6 56.9819C343.24 60.4419 344.6 63.4019 347.24 64.7019C346.68 65.1819 345.94 66.1619 345.58 66.8219C342.52 65.0819 341.12 61.7219 340.3 57.3619L342.6 56.9819ZM337.34 49.0819H346.24V57.7619H337.34V55.5019H343.84V51.3419H337.34V49.0819ZM328.28 51.8219H335.66V54.0619H328.28V51.8219ZM330.94 47.9819H333.24V64.1419C333.24 65.3419 333 65.9419 332.3 66.3019C331.6 66.6819 330.6 66.7419 329.06 66.7419C328.98 66.1219 328.66 65.1419 328.38 64.5419C329.28 64.5819 330.22 64.5619 330.52 64.5619C330.82 64.5419 330.94 64.4419 330.94 64.1419V47.9819ZM327.98 58.1219C329.94 57.8019 332.88 57.2219 335.62 56.6619L335.82 58.8619C333.3 59.4219 330.58 59.9819 328.5 60.4219L327.98 58.1219Z" fill="white"/>
<path d="M98.5 150.462L72.5192 112.962H124.481L98.5 150.462Z" fill="#7FBABA"/>
</svg>
