<svg width="421" height="150" viewBox="0 0 421 150" fill="none" xmlns="http://www.w3.org/2000/svg">
<path d="M0.5 20.4619C0.5 9.41622 9.45431 0.461914 20.5 0.461914H400.5C411.546 0.461914 420.5 9.41622 420.5 20.4619V94.4619C420.5 105.508 411.546 114.462 400.5 114.462H20.5C9.4543 114.462 0.5 105.508 0.5 94.4619V20.4619Z" fill="#7FBABA"/>
<rect x="53.5" y="30.4619" width="50" height="50" rx="25" fill="white"/>
<path d="M73.6585 49.1829L80.4777 46.4597L80.7455 46.6717C80.7083 47.1628 80.6711 48.0296 80.6339 49.2722C80.619 49.8005 80.6004 50.4403 80.5781 51.1918C80.5558 51.9359 80.5298 52.8138 80.5 53.8258C80.4777 54.8377 80.4516 55.9947 80.4219 57.2967C80.3996 58.5988 80.3772 60.0683 80.3549 61.7052H83.1004V62.1182H73.5469V61.7052H76.1808L76.3147 48.5467L73.8036 49.5512L73.6585 49.1829Z" fill="#7FBABA"/>
<path d="M136.22 48.2219C136.14 48.6019 136.06 49.4619 136.04 49.9619C135.94 51.5419 135.88 53.7019 135.88 55.5619C135.88 57.7419 136 61.2019 136 62.3619C136 64.8219 135.12 65.5019 133.8 65.5019C131.86 65.5019 129.1 63.8219 129.1 61.7019C129.1 59.7619 131.6 57.7219 134.38 56.7419C136.16 56.1019 138.18 55.7819 139.7 55.7819C142.78 55.7819 145.22 57.3819 145.22 60.1419C145.22 62.5219 143.98 64.3019 140.8 65.0819C139.88 65.2819 138.98 65.3419 138.16 65.4219L137.26 62.8219C138.14 62.8219 139.02 62.8219 139.7 62.6819C141.32 62.4019 142.62 61.5819 142.62 60.1419C142.62 58.7619 141.42 57.9819 139.68 57.9819C137.98 57.9819 136.22 58.3419 134.66 58.9619C132.86 59.6419 131.58 60.7219 131.58 61.5819C131.58 62.2219 132.52 62.7619 133.04 62.7619C133.4 62.7619 133.66 62.6019 133.66 61.9019C133.66 60.8619 133.56 58.0819 133.56 55.6619C133.56 53.3819 133.58 50.9019 133.58 49.9819C133.58 49.5819 133.52 48.5819 133.46 48.2219H136.22ZM141.92 50.4019C143.44 51.1419 145.76 52.4419 146.84 53.2019L145.62 55.2419C144.66 54.4419 142.06 52.9419 140.82 52.3419L141.92 50.4019ZM129.64 51.5019C130.82 51.6419 131.68 51.6419 132.4 51.6419C134.48 51.6419 137.6 51.2619 139.66 50.6619L139.72 53.1419C137.46 53.6619 134.24 54.0219 132.48 54.0219C131.16 54.0219 130.38 54.0019 129.7 53.9219L129.64 51.5019ZM149.44 50.1419H165.66V62.0419H163.16V52.4419H151.82V62.1619H149.44V50.1419ZM151 54.4819H164.34V56.6819H151V54.4819ZM151 58.8019H164.38V61.1019H151V58.8019ZM156.18 47.4819H158.68V66.2619H156.18V47.4819ZM175.58 48.3219H179.8V50.5819H175.58V48.3219ZM178.6 48.3219H181.12C181.42 54.0219 182.62 58.8419 186.8 60.9619C186.24 61.3419 185.36 62.2219 184.92 62.7819C180.66 60.2419 179.34 55.2019 178.98 49.3819H178.6V48.3219ZM178.52 52.4819L181 52.8419C180.12 57.3419 178.34 60.7419 175.38 62.8019C175.02 62.3419 174.08 61.4019 173.54 61.0019C176.34 59.3219 177.88 56.3419 178.52 52.4819ZM173.04 55.2819V62.6419H170.7V57.5019H168.36V55.2819H173.04ZM173.04 61.6019C173.84 62.9219 175.36 63.5019 177.44 63.5819C179.78 63.6819 184.32 63.6219 187.02 63.4019C186.76 63.9619 186.36 65.1219 186.26 65.8419C183.84 65.9619 179.8 66.0019 177.4 65.9019C174.94 65.8019 173.28 65.2219 171.98 63.6619C171.1 64.4419 170.2 65.2019 169.12 66.0819L167.94 63.5819C168.84 63.0219 169.92 62.3219 170.84 61.6019H173.04ZM168.4 49.3819L170.18 47.9419C171.38 48.7819 172.84 50.0419 173.54 50.9819L171.62 52.5619C171.02 51.6219 169.58 50.2819 168.4 49.3819ZM191.76 49.3419C192.3 49.3819 193 49.4219 193.42 49.4219C194.58 49.4219 196.7 49.3419 197.62 49.2619C198.12 49.2219 198.64 49.1019 199 48.9619L200.58 50.2219C200.32 50.5219 200.08 50.7819 199.92 51.0419C199.24 52.1819 198.16 54.7619 197.26 56.8419C196.46 58.6819 195.5 61.0619 194.68 62.3219C193.88 63.5419 192.94 64.0819 191.56 64.0819C189.82 64.0819 188.5 62.8819 188.5 60.8419C188.5 57.6419 191.56 55.1819 195.84 55.1819C200.5 55.1819 204.58 57.6619 206.68 59.1019L205.52 61.8819C203.06 59.7019 199.54 57.4219 195.42 57.4219C192.5 57.4219 190.82 59.0019 190.82 60.4619C190.82 61.1219 191.2 61.4619 191.68 61.4619C192.08 61.4619 192.34 61.2819 192.72 60.7819C193.38 59.8019 194.1 57.9619 194.82 56.3819C195.52 54.8019 196.34 52.8419 196.94 51.6019C196.14 51.6219 194.4 51.6819 193.5 51.7419C193.08 51.7619 192.38 51.8419 191.86 51.9019L191.76 49.3419ZM204.92 54.0619C204.64 59.7419 203.52 63.4219 198.74 65.9019L196.6 64.1619C201.54 62.0419 202.14 58.3019 202.32 55.9619C202.36 55.1819 202.38 54.3819 202.3 53.7619L204.92 54.0619ZM222.8 48.3019C223.3 49.0219 223.94 50.1819 224.32 50.9219L222.72 51.6019C222.3 50.7819 221.76 49.7219 221.22 48.9419L222.8 48.3019ZM225.4 47.7219C225.92 48.4819 226.6 49.6219 226.96 50.3219L225.36 51.0019C224.94 50.1619 224.36 49.1219 223.82 48.3819L225.4 47.7219ZM219.02 48.6819C218.96 48.9619 218.84 49.9419 218.84 50.4419C218.84 51.6219 218.84 53.3219 218.84 54.4819C218.84 56.1019 218.84 62.0619 218.84 63.7419C218.84 64.9019 218.16 65.6219 216.74 65.6219C215.68 65.6219 214.5 65.5819 213.5 65.4619L213.26 62.9819C214.1 63.1419 214.98 63.2019 215.48 63.2019C216 63.2019 216.18 63.0219 216.2 62.5019C216.22 61.7419 216.22 55.4219 216.22 54.4819C216.22 53.7819 216.22 51.6419 216.22 50.4219C216.22 49.9019 216.12 49.0419 216.06 48.6819H219.02ZM209.22 51.8819C209.82 51.9619 210.52 52.0219 211.14 52.0219C212.36 52.0219 222.06 52.0219 223.5 52.0219C224.06 52.0219 224.92 51.9619 225.46 51.9019V54.5219C224.84 54.4619 224.06 54.4419 223.52 54.4419C222.08 54.4419 212.46 54.4419 211.14 54.4419C210.54 54.4419 209.78 54.4619 209.22 54.5219V51.8819ZM214.32 57.3019C213.4 59.0619 211.54 61.6819 210.46 62.8619L208.28 61.4019C209.62 60.1219 211.22 57.9219 212.04 56.2219L214.32 57.3019ZM222.9 56.1619C223.92 57.4419 225.52 59.9619 226.32 61.4219L223.98 62.7219C223.12 61.0019 221.7 58.5819 220.72 57.3419L222.9 56.1619ZM236.06 55.1019C238.52 56.5219 242.22 59.0819 244.08 60.5619L242.16 62.8419C240.42 61.2019 236.62 58.4019 234.28 56.9219L236.06 55.1019ZM245.48 51.7019C245.24 52.0819 244.98 52.6419 244.8 53.1419C244.2 54.9819 242.98 57.5419 241.18 59.7619C239.3 62.1019 236.74 64.3419 232.92 65.7819L230.6 63.7819C234.78 62.4819 237.16 60.3819 238.88 58.3819C240.22 56.8019 241.46 54.5019 241.84 52.9419H235.08L236 50.6819H241.7C242.32 50.6819 242.98 50.5819 243.44 50.4419L245.48 51.7019ZM238.86 48.6219C238.38 49.3219 237.86 50.2419 237.62 50.6619C236.28 53.0819 233.72 56.1419 230.84 58.1219L228.7 56.4619C232.2 54.3019 234.04 51.5619 235.06 49.8219C235.36 49.3419 235.78 48.4219 235.96 47.7219L238.86 48.6219ZM252.32 49.2619C253.7 50.2019 256.3 52.2819 257.48 53.5019L255.44 55.5819C254.4 54.4619 251.88 52.2819 250.42 51.2819L252.32 49.2619ZM249.8 62.5819C252.94 62.1419 255.52 61.1219 257.46 59.9819C260.88 57.9419 263.48 54.9019 264.76 52.2019L266.3 55.0019C264.8 57.7219 262.14 60.4819 258.92 62.4219C256.88 63.6419 254.3 64.7419 251.5 65.2219L249.8 62.5819ZM277.22 48.4219C277.06 49.1619 276.8 50.3419 276.24 51.7819C275.82 52.7619 275.24 53.9019 274.68 54.7019C275.22 54.4619 276.28 54.3219 276.96 54.3219C278.62 54.3219 279.88 55.3019 279.88 57.1619C279.88 58.2419 279.94 60.4219 279.96 61.6819H277.56C277.64 60.7419 277.68 59.0419 277.66 57.9619C277.66 56.6819 276.86 56.2619 276.02 56.2619C274.92 56.2619 273.66 56.9219 272.9 57.6419C272.3 58.2419 271.74 58.9619 271.06 59.8419L268.92 58.2419C271.48 55.8819 273.02 53.7219 273.86 51.5219C274.26 50.4419 274.52 49.2219 274.58 48.2019L277.22 48.4219ZM269.68 50.2819C270.7 50.4219 272.18 50.5019 273.2 50.5019C275.84 50.5019 279.46 50.3619 282.36 49.8419L282.34 52.1619C279.52 52.5619 275.5 52.7419 273.06 52.7419C272.24 52.7419 270.78 52.7019 269.68 52.6019V50.2819ZM285.52 55.9619C284.9 56.1419 283.82 56.5419 283.14 56.8019C281.84 57.3019 280.04 58.0219 278.16 58.9819C276.34 59.9219 275.36 60.7819 275.36 61.8819C275.36 62.9819 276.32 63.2819 278.26 63.2819C279.96 63.2819 282.2 63.0619 283.96 62.7019L283.88 65.2819C282.54 65.4619 280.1 65.6419 278.2 65.6419C275.08 65.6419 272.74 64.8619 272.74 62.2819C272.74 59.5019 275.6 57.8619 278 56.6619C279.84 55.7019 281.1 55.2219 282.3 54.6619C283.08 54.3219 283.78 54.0019 284.54 53.6219L285.52 55.9619ZM305.48 52.0419C305.26 52.4219 304.98 52.9619 304.82 53.4619C304.28 55.2619 303.14 57.9219 301.32 60.1419C299.42 62.4619 297.02 64.3019 293.26 65.7819L290.9 63.6819C294.98 62.4419 297.2 60.7019 298.96 58.7219C300.32 57.1619 301.48 54.7619 301.8 53.2819H295.06L295.98 51.0019C296.86 51.0019 301.06 51.0019 301.68 51.0019C302.3 51.0019 302.98 50.9219 303.42 50.7619L305.48 52.0419ZM298.96 48.8619C298.48 49.5619 297.96 50.4819 297.74 50.9019C296.38 53.3219 294 56.1419 291.12 58.1019L288.88 56.4419C292.38 54.3019 294.14 51.7219 295.12 50.0019C295.42 49.5219 295.84 48.6019 296.02 47.9019L298.96 48.8619ZM323.54 48.9419C323.5 49.5019 323.48 50.1419 323.48 50.9619C323.48 51.9819 323.48 53.9219 323.48 54.9019C323.48 59.2219 322.64 61.0619 321.14 62.7019C319.82 64.1619 317.76 65.1219 316.3 65.6019L314.2 63.3819C316.2 62.9219 317.8 62.1619 319.02 60.8619C320.38 59.3619 320.66 57.8619 320.66 54.7419C320.66 53.7419 320.66 51.8219 320.66 50.9619C320.66 50.1419 320.6 49.5019 320.52 48.9419H323.54ZM314.28 49.1219C314.24 49.5819 314.2 50.0219 314.2 50.6419C314.2 51.5219 314.2 56.2819 314.2 57.4019C314.2 57.9019 314.24 58.6819 314.28 59.1419H311.36C311.4 58.7819 311.46 58.0019 311.46 57.3819C311.46 56.2419 311.46 51.5219 311.46 50.6419C311.46 50.2819 311.44 49.5819 311.38 49.1219H314.28ZM337.58 52.6019C337.96 53.4419 338.94 56.0619 339.22 56.9819L336.84 57.8019C336.58 56.8419 335.7 54.4219 335.22 53.3819L337.58 52.6019ZM344.96 54.0419C344.74 54.7019 344.62 55.1219 344.5 55.5219C343.98 57.5419 343.12 59.6219 341.76 61.3619C339.9 63.7819 337.42 65.4419 335.08 66.3419L332.98 64.2019C335.16 63.6019 337.96 62.0819 339.6 60.0019C340.96 58.3219 341.94 55.6619 342.16 53.1419L344.96 54.0419ZM332.94 53.6419C333.44 54.6619 334.42 57.1019 334.8 58.2219L332.36 59.1219C332.04 58.0619 331.02 55.3819 330.54 54.5219L332.94 53.6419ZM365.48 52.0419C365.26 52.4219 364.98 52.9619 364.82 53.4619C364.28 55.2619 363.14 57.9219 361.32 60.1419C359.42 62.4619 357.02 64.3019 353.26 65.7819L350.9 63.6819C354.98 62.4419 357.2 60.7019 358.96 58.7219C360.32 57.1619 361.48 54.7619 361.8 53.2819H355.06L355.98 51.0019C356.86 51.0019 361.06 51.0019 361.68 51.0019C362.3 51.0019 362.98 50.9219 363.42 50.7619L365.48 52.0419ZM358.96 48.8619C358.48 49.5619 357.96 50.4819 357.74 50.9019C356.38 53.3219 354 56.1419 351.12 58.1019L348.88 56.4419C352.38 54.3019 354.14 51.7219 355.12 50.0019C355.42 49.5219 355.84 48.6019 356.02 47.9019L358.96 48.8619Z" fill="white"/>
<path d="M98.5 149.962L72.5192 112.462H124.481L98.5 149.962Z" fill="#7FBABA"/>
</svg>
