<svg width="421" height="150" viewBox="0 0 421 150" fill="none" xmlns="http://www.w3.org/2000/svg">
<path d="M0.5 20.9619C0.5 9.91622 9.45431 0.961914 20.5 0.961914H400.5C411.546 0.961914 420.5 9.91622 420.5 20.9619V94.9619C420.5 106.008 411.546 114.962 400.5 114.962H20.5C9.4543 114.962 0.5 106.008 0.5 94.9619V20.9619Z" fill="#7FBABA"/>
<rect x="103.5" y="30.9619" width="50" height="50" rx="25" fill="white"/>
<path d="M134.397 56.2008L134.241 62.6182L121.138 62.6628C121.138 61.7774 121.217 60.9627 121.373 60.2186C121.529 59.4671 121.83 58.764 122.277 58.1092C122.723 57.4545 123.348 56.8369 124.152 56.2566C124.963 55.6762 126.016 55.1144 127.31 54.5713C127.846 54.3481 128.304 54.0802 128.683 53.7677C129.07 53.4478 129.382 53.1018 129.621 52.7298C129.859 52.3503 130.033 51.9597 130.145 51.5579C130.257 51.1487 130.313 50.7469 130.313 50.3525C130.313 49.9284 130.253 49.5229 130.134 49.136C130.015 48.7491 129.847 48.4106 129.632 48.1204C129.423 47.8302 129.167 47.6033 128.862 47.4396C128.564 47.2685 128.233 47.1866 127.868 47.1941C127.385 47.2089 126.979 47.3057 126.652 47.4842C126.332 47.6554 126.071 47.8823 125.871 48.165C125.67 48.4403 125.525 48.7528 125.435 49.1025C125.353 49.4522 125.309 49.8057 125.301 50.1628C125.301 50.572 125.246 50.9515 125.134 51.3012C125.022 51.6435 124.866 51.9411 124.665 52.1941C124.464 52.4396 124.226 52.633 123.951 52.7744C123.683 52.9158 123.393 52.9827 123.08 52.9753C122.82 52.9753 122.571 52.9344 122.333 52.8525C122.102 52.7707 121.897 52.6516 121.719 52.4954C121.54 52.3317 121.399 52.1308 121.295 51.8927C121.19 51.6472 121.138 51.3682 121.138 51.0557C121.138 50.758 121.187 50.453 121.283 50.1405C121.425 49.6494 121.693 49.203 122.087 48.8012C122.481 48.392 122.969 48.0423 123.549 47.7521C124.137 47.4545 124.795 47.2238 125.525 47.0601C126.261 46.889 127.042 46.796 127.868 46.7811H127.98C128.337 46.7811 128.72 46.7997 129.129 46.8369C129.539 46.8667 129.952 46.9336 130.368 47.0378C130.792 47.1345 131.205 47.2722 131.607 47.4508C132.016 47.6219 132.392 47.8451 132.734 48.1204C133.084 48.3883 133.389 48.7156 133.65 49.1025C133.917 49.482 134.122 49.9284 134.263 50.4418C134.323 50.6725 134.368 50.9031 134.397 51.1338C134.427 51.357 134.442 51.5839 134.442 51.8146C134.442 52.4619 134.312 53.0832 134.051 53.6784C133.798 54.2737 133.404 54.8131 132.868 55.2967C132.333 55.7729 131.652 56.1784 130.826 56.5133C130.007 56.8406 129.029 57.0638 127.891 57.1829C127.042 57.2201 126.25 57.3131 125.513 57.4619C125.201 57.5289 124.885 57.6107 124.565 57.7074C124.252 57.7967 123.955 57.9121 123.672 58.0534C123.389 58.1874 123.136 58.3473 122.913 58.5333C122.69 58.7119 122.519 58.9165 122.4 59.1472L133.917 58.7119L133.984 56.2008H134.397Z" fill="#7FBABA"/>
<path d="M196.58 51.4419C196.38 51.7019 196 52.1819 195.82 52.4619C194.88 54.0219 192.98 56.5619 191 57.9619L188.92 56.3019C190.54 55.3219 192.1 53.5619 192.62 52.5819C191.4 52.5819 183.44 52.5819 182.18 52.5819C181.36 52.5819 180.68 52.6219 179.74 52.7219V49.9219C180.52 50.0419 181.36 50.1419 182.18 50.1419C183.44 50.1419 191.92 50.1419 192.96 50.1419C193.52 50.1419 194.62 50.0619 195 49.9619L196.58 51.4419ZM188.44 54.1219C188.44 59.0819 188.32 63.1619 182.88 66.1019L180.54 64.2019C181.2 63.9819 181.92 63.6419 182.66 63.0819C185.18 61.3219 185.66 59.2219 185.66 55.9419C185.66 55.3019 185.64 54.7819 185.54 54.1219H188.44ZM208.14 48.9219C208.08 49.4019 208.02 50.2419 208 50.7219C207.78 58.6619 205.9 62.7219 201.48 65.8619L199.14 63.9819C199.98 63.5219 200.98 62.8619 201.78 62.0419C204.4 59.4419 205.32 56.0419 205.34 50.7619C205.34 50.3219 205.26 49.4019 205.18 48.9219H208.14ZM214.92 53.2219C214.86 53.5419 214.8 54.0419 214.8 54.2619C214.72 56.4419 214.46 62.0219 213.6 64.0619C213.18 65.0619 212.4 65.6019 211.04 65.6019C209.88 65.6019 208.7 65.5019 207.72 65.4219L207.4 62.7619C208.4 62.9219 209.42 63.0419 210.22 63.0419C210.86 63.0419 211.14 62.8219 211.34 62.3219C211.92 61.0619 212.2 57.0619 212.2 54.9019H202.44C201.76 54.9019 200.64 54.9219 199.8 55.0019V52.3619C200.64 52.4619 201.66 52.5019 202.42 52.5019H211.68C212.2 52.5019 212.72 52.4619 213.2 52.3619L214.92 53.2219ZM228.94 48.6419C228.82 49.5019 228.8 49.9019 228.8 50.4819C228.8 51.0019 228.8 52.6019 228.8 53.3619H226C226 52.4819 226 51.0019 226 50.4819C226 49.9019 225.98 49.5019 225.86 48.6419H228.94ZM235.66 52.8619C235.52 53.3019 235.36 54.0619 235.28 54.4419C234.92 56.3619 234.4 58.3019 233.4 60.1219C231.82 63.0619 228.8 65.1819 225.24 66.1219L223.16 63.7219C224.08 63.5619 225.16 63.2619 226 62.9219C227.64 62.3019 229.4 61.1219 230.54 59.5219C231.54 58.0419 232.06 56.1419 232.3 54.3619H222.38C222.38 55.0619 222.38 56.6819 222.38 57.3019C222.38 57.7419 222.4 58.3819 222.46 58.7819H219.7C219.76 58.2819 219.78 57.6419 219.78 57.1019C219.78 56.4419 219.78 54.3819 219.78 53.6219C219.78 53.1819 219.78 52.3819 219.7 51.9219C220.38 51.9819 220.98 52.0019 221.74 52.0019H232.28C233.1 52.0019 233.58 51.9219 233.94 51.8019L235.66 52.8619ZM242.32 49.7619C243.7 50.7019 246.3 52.7819 247.48 54.0019L245.44 56.0819C244.4 54.9619 241.88 52.7819 240.42 51.7819L242.32 49.7619ZM239.8 63.0819C242.94 62.6419 245.52 61.6219 247.46 60.4819C250.88 58.4419 253.48 55.4019 254.76 52.7019L256.3 55.5019C254.8 58.2219 252.14 60.9819 248.92 62.9219C246.88 64.1419 244.3 65.2419 241.5 65.7219L239.8 63.0819ZM263.76 63.0619C263.76 61.5219 263.76 53.2419 263.76 51.5619C263.76 50.8419 263.7 49.8619 263.56 49.1419H266.68C266.6 49.8619 266.5 50.7219 266.5 51.5619C266.5 53.7619 266.52 61.5819 266.52 63.0619C266.52 63.6219 266.6 65.0219 266.7 65.8419H263.56C263.7 65.0619 263.76 63.8419 263.76 63.0619ZM265.92 54.3219C268.58 55.0619 272.9 56.6419 274.86 57.6019L273.74 60.3819C271.46 59.2019 268.1 57.9219 265.92 57.2019V54.3219ZM287.34 51.2419H296.94V53.5219H286.22L287.34 51.2419ZM289.98 55.6419H296.42V57.8219H289.98V55.6419ZM289.96 60.0619H296.68V62.3019H289.96V60.0619ZM288.76 52.0019H291.22V66.7619H288.76V52.0019ZM287.8 48.1619L290.12 48.7819C289 52.0219 287.2 55.3419 285.36 57.4219C284.98 56.9819 284.06 56.1219 283.54 55.7419C285.3 53.9419 286.88 51.0619 287.8 48.1619ZM282.52 48.0619L284.84 48.8019C283.54 52.2019 281.44 55.8619 279.24 58.1419C279.02 57.5419 278.34 56.1819 277.92 55.5819C279.76 53.7619 281.5 50.9219 282.52 48.0619ZM280.5 53.5819L282.9 51.1619L282.92 51.1819V66.7419H280.5V53.5819ZM301.12 55.5019H305.74V57.7019H301.12V55.5019ZM304.82 55.5019H307.16C307.16 55.5019 307.14 56.1019 307.14 56.3819C307.06 60.6219 306.96 62.4019 306.5 63.0219C306.1 63.5219 305.7 63.7019 305.12 63.8019C304.58 63.8819 303.72 63.8819 302.78 63.8619C302.74 63.1619 302.48 62.2219 302.12 61.6219C302.84 61.7019 303.52 61.7019 303.84 61.7019C304.12 61.7019 304.3 61.6619 304.46 61.4619C304.7 61.1419 304.78 59.7419 304.82 55.8619V55.5019ZM310.84 49.2419L312.28 47.7819C313.38 48.3619 314.86 49.2819 315.58 49.9419L314.04 51.5619C313.38 50.8619 311.96 49.8819 310.84 49.2419ZM313.2 54.3819L315.62 54.9619C313.94 60.1819 311 64.2419 307.04 66.6819C306.68 66.1819 305.8 65.1819 305.3 64.7019C309.14 62.6419 311.82 59.0219 313.2 54.3819ZM301.26 50.9819H316.68V53.3419H301.26V50.9819ZM299.66 50.9819H302.18V56.8619C302.18 59.8619 301.84 64.3019 300.02 67.0019C299.62 66.5219 298.54 65.6419 297.98 65.3619C299.52 62.9619 299.66 59.4619 299.66 56.8419V50.9819ZM307.78 48.0019H310.3C310.16 56.1619 312 64.1819 314.02 64.1819C314.48 64.1819 314.72 63.1619 314.84 60.6419C315.38 61.2019 316.24 61.7619 316.88 62.0019C316.5 65.7219 315.7 66.6219 313.82 66.6219C309.46 66.6219 307.84 57.1219 307.78 48.0019Z" fill="white"/>
<path d="M98.5 149.962L72.5192 112.462H124.481L98.5 149.962Z" fill="#7FBABA"/>
</svg>
