<svg width="25" height="24" viewBox="0 0 25 24" fill="none" xmlns="http://www.w3.org/2000/svg">
<path d="M20.8388 10.7202C20.8388 10.8872 20.7726 11.0474 20.6547 11.1657C20.5369 11.284 20.3769 11.3508 20.2099 11.3514H18.4542V12.4758H20.2099C20.377 12.4758 20.5373 12.5422 20.6554 12.6604C20.7736 12.7785 20.84 12.9388 20.84 13.1059C20.84 13.273 20.7736 13.4332 20.6554 13.5514C20.5373 13.6695 20.377 13.7359 20.2099 13.7359H17.823C17.6566 13.7346 17.4975 13.6677 17.3802 13.5498C17.2629 13.4318 17.1969 13.2723 17.1966 13.1059V8.33444C17.1966 7.99003 17.4786 7.70441 17.8266 7.70441H20.2123C20.3727 7.71462 20.5231 7.78559 20.633 7.90287C20.7428 8.02014 20.8038 8.17489 20.8035 8.33557C20.8032 8.49625 20.7416 8.65077 20.6313 8.76763C20.521 8.88448 20.3703 8.95488 20.2099 8.96447H18.4542V10.0901H20.2099C20.5579 10.0901 20.8388 10.3733 20.8388 10.7202ZM15.9221 13.7023C15.8578 13.7231 15.7905 13.7336 15.7229 13.7335C15.624 13.7356 15.5261 13.7139 15.4374 13.6702C15.3486 13.6266 15.2716 13.5623 15.2129 13.4827L12.7696 10.1657V13.1059C12.7576 13.2643 12.6862 13.4123 12.5697 13.5203C12.4532 13.6283 12.3002 13.6883 12.1413 13.6883C11.9825 13.6883 11.8295 13.6283 11.713 13.5203C11.5965 13.4123 11.5251 13.2643 11.5131 13.1059V8.33444C11.5128 8.16851 11.5783 8.00923 11.6953 7.89156C11.8123 7.77389 11.9712 7.70745 12.1371 7.70681C12.2333 7.70987 12.3275 7.73429 12.413 7.77829C12.4985 7.8223 12.5732 7.88479 12.6316 7.96123L15.0941 11.2914V8.33444C15.0941 7.99003 15.3761 7.70441 15.7241 7.70441C16.0685 7.70441 16.3541 7.99003 16.3541 8.33444V13.1059C16.3538 13.238 16.3119 13.3668 16.2344 13.4738C16.1568 13.5808 16.0476 13.6608 15.9221 13.7023ZM9.98183 13.7347C9.81546 13.7338 9.65619 13.6672 9.53865 13.5494C9.42112 13.4316 9.35483 13.2723 9.3542 13.1059V8.33444C9.3542 7.99003 9.63621 7.70441 9.98423 7.70441C10.331 7.70441 10.6131 7.99003 10.6131 8.33444V13.1059C10.6121 13.2728 10.5452 13.4325 10.427 13.5503C10.3087 13.6681 10.1487 13.7344 9.98183 13.7347ZM8.14574 13.7347H5.76122C5.59463 13.7338 5.4351 13.6672 5.31719 13.5496C5.19927 13.4319 5.13245 13.2725 5.13119 13.1059V8.33444C5.13119 7.99003 5.41681 7.70441 5.76122 7.70441C6.10924 7.70441 6.39125 7.99003 6.39125 8.33444V12.4758H8.14814C8.31524 12.4758 8.47549 12.5422 8.59364 12.6604C8.71179 12.7785 8.77817 12.9388 8.77817 13.1059C8.77817 13.273 8.71179 13.4332 8.59364 13.5514C8.47549 13.6695 8.31524 13.7359 8.14814 13.7359L8.14574 13.7347ZM12.844 0.798075C6.22805 0.798075 0.843384 5.16989 0.843384 10.5414C0.843384 15.3524 5.11319 19.3834 10.8795 20.149C11.2695 20.2318 11.8023 20.407 11.9367 20.7395C12.0567 21.0395 12.0159 21.5051 11.9751 21.8195L11.8107 22.8396C11.7663 23.1396 11.5707 24.0252 12.8596 23.484C14.1508 22.9452 19.7767 19.4062 22.2968 16.5092C24.0201 14.6204 24.8434 12.6847 24.8434 10.5402C24.8434 5.16869 19.4575 0.796875 12.8428 0.796875L12.844 0.798075Z" fill="#7FBABA"/>
</svg>
