<svg width="23" height="23" viewBox="0 0 23 23" fill="none" xmlns="http://www.w3.org/2000/svg">
<path d="M20.3989 0.226562C21.0472 0.226563 21.669 0.484101 22.1274 0.942524C22.5858 1.40095 22.8434 2.0227 22.8434 2.67101V19.7821C22.8434 20.4304 22.5858 21.0522 22.1274 21.5106C21.669 21.969 21.0472 22.2266 20.3989 22.2266H3.28783C2.63952 22.2266 2.01777 21.969 1.55934 21.5106C1.10092 21.0522 0.843384 20.4304 0.843384 19.7821V2.67101C0.843384 2.0227 1.10092 1.40095 1.55934 0.942524C2.01777 0.484101 2.63952 0.226563 3.28783 0.226562H20.3989ZM19.7878 19.171V12.6932C19.7878 11.6365 19.368 10.623 18.6208 9.8758C17.8736 9.12857 16.8601 8.70878 15.8034 8.70878C14.7645 8.70878 13.5545 9.34434 12.9678 10.2977V8.94101H9.55783V19.171H12.9678V13.1455C12.9678 12.2043 13.7256 11.4343 14.6667 11.4343C15.1205 11.4343 15.5558 11.6146 15.8767 11.9355C16.1976 12.2564 16.3778 12.6916 16.3778 13.1455V19.171H19.7878ZM5.58561 7.02212C6.13018 7.02212 6.65246 6.80579 7.03753 6.42071C7.42261 6.03564 7.63894 5.51336 7.63894 4.96878C7.63894 3.83212 6.72227 2.90323 5.58561 2.90323C5.03779 2.90323 4.5124 3.12085 4.12504 3.50822C3.73767 3.89558 3.52005 4.42097 3.52005 4.96878C3.52005 6.10545 4.44894 7.02212 5.58561 7.02212ZM7.2845 19.171V8.94101H3.89894V19.171H7.2845Z" fill="#7FBABA"/>
</svg>
