<svg width="184" height="42" viewBox="0 0 184 42" fill="none" xmlns="http://www.w3.org/2000/svg">
<circle cx="21.5" cy="21" r="21" fill="#7FBABA" fill-opacity="0.6"/>
<mask id="mask0_318_34" style="mask-type:alpha" maskUnits="userSpaceOnUse" x="2" y="0" width="41" height="41">
<circle cx="22.2924" cy="20.2076" r="19.8113" fill="#D9D9D9"/>
</mask>
<g mask="url(#mask0_318_34)">
<circle cx="22.2924" cy="20.2076" r="19.8113" fill="#7FBABA"/>
<path d="M17.2697 20.7374L8.87696 7.29513H20.2472L25.2968 15.3744L30.4508 7.29513H34.9954L27.4385 18.8221L36.4232 33.1698L25.053 33.1872L19.3766 24.1328L13.5086 33.1872H8.94661L17.2697 20.7374Z" fill="#FFB7C8" fill-opacity="0.69"/>
<path d="M19.4333 19.7225L14.5842 11.9558H21.1536L24.0712 16.6239L27.0491 11.9558H29.6748L25.3086 18.6158L30.4998 26.9056L23.9303 26.9157L20.6506 21.6843L17.2603 26.9157H14.6244L19.4333 19.7225Z" fill="#E7EA5C"/>
<path d="M18.608 20.4625L12.0804 10.0073H20.9239L24.8513 16.2912L28.86 10.0073H32.3947L26.5171 18.9727L33.5052 30.1321L24.6617 30.1456L20.2467 23.1033L15.6828 30.1456H12.1345L18.608 20.4625Z" fill="#E7EA5C" fill-opacity="0.6"/>
<path d="M13.8005 20.2875L1.67766 0.870843H18.1013L25.3951 12.5409L32.8399 0.870843H39.4043L28.4887 17.5209L41.4667 38.2454L25.043 38.2705L16.8438 25.1919L8.36785 38.2705H1.77827L13.8005 20.2875Z" fill="#FFB7C8" fill-opacity="0.29"/>
</g>
<path d="M53.0773 5.49842H58.1574L56.7254 10.7835H60.4783L61.9103 5.49842H66.9992L63.5748 18.1045H58.4947L59.952 12.7261H56.1991L54.7418 18.1045H49.6617L53.0773 5.49842ZM71.8829 8.29788C71.4493 8.29788 71.0865 8.25263 70.7947 8.16215C70.5086 8.07166 70.2875 7.94724 70.1311 7.78889C69.9764 7.62488 69.8804 7.43825 69.8434 7.229C69.8079 7.01409 69.8238 6.78221 69.8912 6.53337C69.9571 6.29019 70.0661 6.06114 70.218 5.84623C70.37 5.63133 70.5671 5.4447 70.8092 5.28634C71.0528 5.12234 71.3422 4.99509 71.6773 4.9046C72.0182 4.81411 72.4055 4.76887 72.839 4.76887C73.2785 4.76887 73.6412 4.81411 73.9273 4.9046C74.2133 4.99509 74.4337 5.12234 74.5885 5.28634C74.7507 5.4447 74.8495 5.63133 74.885 5.84623C74.9206 6.06114 74.9054 6.29019 74.8395 6.53337C74.7721 6.78221 74.6624 7.01409 74.5104 7.229C74.3599 7.43825 74.16 7.62488 73.9104 7.78889C73.6683 7.94724 73.3797 8.07166 73.0447 8.16215C72.7096 8.25263 72.3223 8.29788 71.8829 8.29788ZM69.1218 9.69761H73.8943L71.6165 18.1045H66.844L69.1218 9.69761ZM76.724 9.69761H81.1185L81.1889 10.8004C81.3943 10.6477 81.6319 10.495 81.9018 10.3423C82.1717 10.1896 82.4605 10.0539 82.768 9.93514C83.0756 9.81637 83.3975 9.72023 83.7339 9.64671C84.0761 9.57319 84.42 9.53643 84.7657 9.53643C85.4278 9.53643 86.0236 9.62974 86.5531 9.81637C87.0826 10.003 87.5144 10.2801 87.8484 10.6477C88.1824 11.0153 88.3989 11.4706 88.4979 12.0135C88.6027 12.5564 88.5578 13.187 88.3632 13.9053C88.184 14.567 87.9014 15.1664 87.5156 15.7037C87.1372 16.2353 86.6732 16.6934 86.1237 17.078C85.5757 17.4569 84.9541 17.751 84.2587 17.9602C83.5707 18.1638 82.8312 18.2656 82.0402 18.2656C81.4367 18.2656 80.9102 18.1978 80.4606 18.062C80.0185 17.9207 79.6612 17.7255 79.3887 17.4767L78.0809 22.3036H73.3084L76.724 9.69761ZM79.6898 16.3654C79.8011 16.4955 79.9376 16.5973 80.0993 16.6708C80.261 16.7443 80.4327 16.7811 80.6143 16.7811C80.9073 16.7811 81.1906 16.7302 81.4643 16.6284C81.7454 16.5209 82.0066 16.3569 82.248 16.1364C82.4953 15.9158 82.7147 15.6358 82.9062 15.2965C83.1051 14.9515 83.2697 14.5387 83.4 14.058C83.5318 13.5716 83.5946 13.1559 83.5885 12.8109C83.5882 12.466 83.5322 12.186 83.4205 11.9711C83.3103 11.7505 83.1519 11.5894 82.9451 11.4876C82.7383 11.3858 82.4942 11.3349 82.213 11.3349C81.9903 11.3349 81.7687 11.3745 81.548 11.4536C81.3289 11.5271 81.1255 11.6289 80.9379 11.759L79.6898 16.3654ZM90.0642 13.8544C90.196 13.368 90.3953 12.924 90.6623 12.5225C90.9293 12.121 91.2434 11.7619 91.6046 11.4451C91.9732 11.1228 92.3801 10.8428 92.8254 10.6053C93.2706 10.3678 93.7373 10.1698 94.2255 10.0115C94.7137 9.85313 95.2117 9.73437 95.7195 9.65519C96.2273 9.57601 96.7302 9.53643 97.2282 9.53643C97.8845 9.53643 98.4616 9.60146 98.9596 9.73154C99.4649 9.85596 99.8957 10.0285 100.252 10.249C100.614 10.4696 100.908 10.7269 101.133 11.021C101.364 11.3151 101.533 11.6289 101.642 11.9626C101.758 12.2906 101.816 12.63 101.815 12.9806C101.819 13.3312 101.776 13.6734 101.686 14.0071L94.8322 14.779C94.791 15.4068 94.9171 15.8932 95.2103 16.2382C95.5035 16.5831 95.9988 16.7556 96.6961 16.7556C97.0769 16.7556 97.4437 16.7104 97.7963 16.6199C98.1548 16.5294 98.4454 16.4191 98.6682 16.2891L99.0495 17.4767C98.8036 17.5842 98.5387 17.6859 98.2549 17.7821C97.9769 17.8782 97.6726 17.9631 97.3422 18.0366C97.0191 18.1045 96.6647 18.1582 96.279 18.1978C95.8976 18.243 95.4842 18.2656 95.0389 18.2656C93.9725 18.2656 93.0847 18.1469 92.3757 17.9093C91.6681 17.6662 91.1139 17.3438 90.7129 16.9423C90.3193 16.5351 90.0715 16.0657 89.9694 15.534C89.8732 15.0024 89.9048 14.4425 90.0642 13.8544ZM97.6576 13.1418C97.8568 12.4066 97.905 11.8721 97.802 11.5385C97.7049 11.2048 97.4689 11.038 97.0939 11.038C96.9005 11.038 96.7095 11.0832 96.521 11.1737C96.3324 11.2642 96.1535 11.4056 95.9842 11.5978C95.8149 11.7901 95.6537 12.039 95.5007 12.3444C95.3491 12.6441 95.2122 13.0089 95.0899 13.4387L97.6576 13.1418ZM104.866 9.69761H109.076L109.167 10.9192C109.565 10.6817 109.934 10.4781 110.273 10.3084C110.619 10.1331 110.945 9.98886 111.251 9.87575C111.565 9.75699 111.857 9.67216 112.129 9.62126C112.408 9.5647 112.676 9.53643 112.934 9.53643C113.309 9.53643 113.632 9.58732 113.903 9.68912C114.18 9.79092 114.399 9.93514 114.56 10.1218C114.726 10.3084 114.829 10.5318 114.87 10.7919C114.918 11.0464 114.9 11.3292 114.816 11.6403C114.732 11.9513 114.584 12.2369 114.373 12.4971C114.168 12.7572 113.907 12.9834 113.591 13.1757C113.277 13.3623 112.912 13.5094 112.496 13.6168C112.088 13.7186 111.638 13.7695 111.145 13.7695L110.139 11.776C109.969 11.776 109.775 11.8099 109.557 11.8778C109.34 11.9457 109.141 12.0531 108.96 12.2001L107.361 18.1045H102.588L104.866 9.69761ZM61.8556 31.228C61.9874 30.7416 62.1868 30.2976 62.4538 29.8961C62.7208 29.4946 63.0349 29.1354 63.3961 28.8187C63.7647 28.4964 64.1716 28.2164 64.6168 27.9789C65.062 27.7414 65.5288 27.5434 66.017 27.3851C66.5052 27.2267 67.0032 27.108 67.511 27.0288C68.0188 26.9496 68.5217 26.91 69.0197 26.91C69.676 26.91 70.2531 26.9751 70.751 27.1051C71.2564 27.2295 71.6872 27.402 72.0434 27.6226C72.4056 27.8432 72.6991 28.1005 72.9241 28.3946C73.155 28.6887 73.3248 29.0025 73.4336 29.3362C73.5498 29.6642 73.6073 30.0036 73.6061 30.3542C73.6107 30.7048 73.5678 31.047 73.4774 31.3807L66.6237 32.1526C66.5825 32.7804 66.7085 33.2668 67.0018 33.6117C67.295 33.9567 67.7903 34.1292 68.4875 34.1292C68.8684 34.1292 69.2351 34.084 69.5878 33.9935C69.9463 33.903 70.2369 33.7927 70.4597 33.6626L70.841 34.8503C70.5951 34.9577 70.3302 35.0595 70.0463 35.1557C69.7683 35.2518 69.4641 35.3367 69.1336 35.4102C68.8106 35.478 68.4562 35.5318 68.0704 35.5714C67.689 35.6166 67.2757 35.6392 66.8304 35.6392C65.764 35.6392 64.8762 35.5205 64.1671 35.2829C63.4596 35.0397 62.9053 34.7174 62.5044 34.3158C62.1108 33.9087 61.863 33.4392 61.7609 32.9076C61.6647 32.376 61.6963 31.8161 61.8556 31.228ZM69.4491 30.5154C69.6483 29.7802 69.6964 29.2457 69.5935 28.912C69.4964 28.5784 69.2603 28.4115 68.8853 28.4115C68.692 28.4115 68.501 28.4568 68.3124 28.5473C68.1239 28.6378 67.9449 28.7791 67.7756 28.9714C67.6064 29.1637 67.4452 29.4126 67.2921 29.718C67.1406 30.0177 67.0037 30.3825 66.8814 30.8123L69.4491 30.5154ZM76.6573 27.0712H80.8673L80.9582 28.2928C81.7034 27.8347 82.4268 27.4897 83.1282 27.2578C83.8356 27.0259 84.5438 26.91 85.2528 26.91C85.6571 26.91 86.0144 26.9751 86.3249 27.1051C86.6412 27.2352 86.8915 27.436 87.0758 27.7074C87.26 27.9789 87.3672 28.3295 87.3972 28.7593C87.4288 29.1835 87.3641 29.6925 87.2032 30.2863L85.7965 35.478H81.0241L82.5089 29.9979C82.5886 29.7038 82.5794 29.4889 82.4814 29.3532C82.3834 29.2174 82.2055 29.1496 81.9477 29.1496C81.7778 29.1496 81.5811 29.1835 81.3576 29.2514C81.1342 29.3192 80.9322 29.4267 80.7517 29.5737L79.152 35.478H74.3795L76.6573 27.0712ZM90.9379 28.4709H89.9535L90.3328 27.0712H91.3171L92.0756 24.2717H96.8481L96.0896 27.0712H98.3835L97.1078 28.4709H95.7104L94.6783 32.2799C94.522 32.8567 94.5336 33.3007 94.713 33.6117C94.8982 33.9228 95.2399 34.0783 95.7379 34.0783L94.8781 35.2405C94.5397 35.3649 94.1885 35.4611 93.8244 35.5289C93.4646 35.6025 93.0592 35.6392 92.608 35.6392C91.9752 35.6392 91.4509 35.5629 91.0353 35.4102C90.6211 35.2518 90.3067 35.0284 90.0919 34.74C89.877 34.4516 89.756 34.0981 89.7288 33.6796C89.7074 33.2611 89.768 32.7889 89.9105 32.2629L90.9379 28.4709ZM98.0266 32.8313C98.137 32.4241 98.3334 32.0452 98.6159 31.6945C98.8984 31.3439 99.2507 31.0385 99.6727 30.7784C100.095 30.5182 100.575 30.3146 101.113 30.1676C101.652 30.0149 102.229 29.9385 102.845 29.9385C103.46 29.9385 104.015 30.0092 104.51 30.1506C105.012 30.2863 105.416 30.4616 105.721 30.6766L105.739 30.6087C105.846 30.2128 105.891 29.8763 105.872 29.5992C105.859 29.3221 105.783 29.0958 105.643 28.9205C105.503 28.7452 105.297 28.618 105.026 28.5388C104.76 28.4596 104.431 28.42 104.038 28.42C103.681 28.42 103.303 28.4511 102.906 28.5133C102.509 28.5699 102.135 28.6547 101.782 28.7678L101.451 27.6226C102.158 27.3681 102.866 27.1871 103.575 27.0797C104.291 26.9666 105.013 26.91 105.739 26.91C106.671 26.91 107.47 26.9977 108.138 27.173C108.813 27.3427 109.346 27.6 109.739 27.945C110.139 28.2843 110.395 28.7141 110.506 29.2344C110.619 29.7491 110.581 30.3542 110.392 31.0498L109.192 35.478H104.736L104.658 34.6637C104.447 34.7937 104.205 34.9182 103.933 35.0369C103.661 35.1557 103.368 35.2603 103.057 35.3508C102.745 35.4413 102.421 35.512 102.085 35.5629C101.749 35.6138 101.405 35.6392 101.054 35.6392C100.48 35.6392 99.9774 35.5685 99.5469 35.4271C99.1239 35.2801 98.782 35.0822 98.5213 34.8333C98.2606 34.5845 98.0854 34.2904 97.9957 33.9511C97.9075 33.6061 97.9178 33.2328 98.0266 32.8313ZM102.997 32.6531C102.914 32.9585 102.949 33.2074 103.102 33.3997C103.257 33.5863 103.507 33.6796 103.852 33.6796C104.04 33.6796 104.232 33.6513 104.429 33.5948C104.628 33.5326 104.819 33.4421 105.004 33.3233L105.392 31.8896C105.145 31.72 104.846 31.6352 104.494 31.6352C104.096 31.6352 103.765 31.7313 103.502 31.9236C103.246 32.1102 103.078 32.3534 102.997 32.6531ZM115.729 21.4723H120.501L116.707 35.478H111.934L115.729 21.4723ZM144.582 21.4723H149.355L145.56 35.478H140.788L144.582 21.4723ZM148.536 32.8313C148.646 32.4241 148.842 32.0452 149.125 31.6945C149.407 31.3439 149.76 31.0385 150.182 30.7784C150.604 30.5182 151.084 30.3146 151.622 30.1676C152.161 30.0149 152.738 29.9385 153.354 29.9385C153.969 29.9385 154.524 30.0092 155.019 30.1506C155.521 30.2863 155.925 30.4616 156.23 30.6766L156.248 30.6087C156.355 30.2128 156.4 29.8763 156.381 29.5992C156.368 29.3221 156.292 29.0958 156.152 28.9205C156.012 28.7452 155.806 28.618 155.535 28.5388C155.269 28.4596 154.94 28.42 154.547 28.42C154.19 28.42 153.812 28.4511 153.415 28.5133C153.018 28.5699 152.644 28.6547 152.291 28.7678L151.96 27.6226C152.667 27.3681 153.375 27.1871 154.084 27.0797C154.8 26.9666 155.522 26.91 156.248 26.91C157.18 26.91 157.979 26.9977 158.647 27.173C159.322 27.3427 159.855 27.6 160.248 27.945C160.648 28.2843 160.904 28.7141 161.015 29.2344C161.128 29.7491 161.09 30.3542 160.901 31.0498L159.701 35.478H155.245L155.167 34.6637C154.956 34.7937 154.714 34.9182 154.442 35.0369C154.169 35.1557 153.877 35.2603 153.566 35.3508C153.254 35.4413 152.93 35.512 152.594 35.5629C152.258 35.6138 151.914 35.6392 151.563 35.6392C150.989 35.6392 150.486 35.5685 150.056 35.4271C149.633 35.2801 149.291 35.0822 149.03 34.8333C148.77 34.5845 148.594 34.2904 148.505 33.9511C148.417 33.6061 148.427 33.2328 148.536 32.8313ZM153.506 32.6531C153.423 32.9585 153.458 33.2074 153.611 33.3997C153.766 33.5863 154.016 33.6796 154.361 33.6796C154.549 33.6796 154.741 33.6513 154.938 33.5948C155.137 33.5326 155.328 33.4421 155.513 33.3233L155.901 31.8896C155.654 31.72 155.355 31.6352 155.003 31.6352C154.605 31.6352 154.274 31.7313 154.011 31.9236C153.755 32.1102 153.587 32.3534 153.506 32.6531ZM164.721 27.0712H168.931L169.022 28.2928C169.767 27.8347 170.49 27.4897 171.192 27.2578C171.899 27.0259 172.607 26.91 173.316 26.91C173.721 26.91 174.078 26.9751 174.388 27.1051C174.705 27.2352 174.955 27.436 175.139 27.7074C175.324 27.9789 175.431 28.3295 175.461 28.7593C175.492 29.1835 175.428 29.6925 175.267 30.2863L173.86 35.478H169.088L170.572 29.9979C170.652 29.7038 170.643 29.4889 170.545 29.3532C170.447 29.2174 170.269 29.1496 170.011 29.1496C169.841 29.1496 169.645 29.1835 169.421 29.2514C169.198 29.3192 168.996 29.4267 168.815 29.5737L167.216 35.478H162.443L164.721 27.0712Z" fill="#7FBABA"/>
<path d="M119.706 12.0475L117.244 5.49842H122.984L124.466 9.43463L128.134 5.49842H130.428L125.092 11.1143L127.733 18.1045L121.992 18.1129L120.322 13.7017L116.165 18.1129H113.862L119.706 12.0475Z" fill="#E7EA5C"/>
<path d="M48.37 22.872H55.9022C56.8749 22.872 57.6977 22.971 58.3706 23.1689C59.0494 23.3669 59.5837 23.644 59.9735 24.0003C60.3691 24.3566 60.6226 24.7836 60.7338 25.2812C60.8451 25.7789 60.8195 26.3275 60.6571 26.927C60.4563 27.6678 60.0962 28.3267 59.5766 28.9036C59.0586 29.4748 58.3961 29.93 57.5894 30.2694L58.918 35.4865H53.1787L52.3457 30.9056H51.2734L50.0345 35.478H44.9545L48.37 22.872ZM51.9971 29.3701C52.4131 29.3701 52.8005 29.3136 53.1592 29.2005C53.518 29.0874 53.8392 28.929 54.1229 28.7254C54.4081 28.5162 54.6506 28.2702 54.8502 27.9874C55.0514 27.6989 55.198 27.3851 55.2899 27.0457C55.3819 26.7064 55.4046 26.3954 55.3582 26.1126C55.3133 25.8242 55.2042 25.5782 55.0308 25.3746C54.859 25.1653 54.6243 25.0041 54.3269 24.891C54.0294 24.7779 53.6726 24.7213 53.2566 24.7213H52.9578L51.6894 29.3701H51.9971ZM129.218 22.872H135.502C136.664 22.8664 137.636 22.9653 138.419 23.1689C139.209 23.3669 139.826 23.6525 140.27 24.0257C140.714 24.399 140.993 24.8486 141.108 25.3746C141.231 25.8949 141.206 26.4745 141.033 27.1136C140.881 27.6735 140.612 28.2108 140.227 28.7254C139.849 29.2344 139.352 29.684 138.736 30.0742C138.127 30.4645 137.398 30.7755 136.55 31.0074C135.708 31.2393 134.748 31.3552 133.67 31.3552H132L130.883 35.478H125.803L129.218 22.872ZM132.501 29.5059C132.907 29.5002 133.283 29.4408 133.63 29.3277C133.979 29.209 134.289 29.0478 134.561 28.8442C134.834 28.6349 135.066 28.3861 135.255 28.0977C135.452 27.8036 135.6 27.4756 135.698 27.1136C135.794 26.7573 135.823 26.435 135.784 26.1465C135.745 25.8581 135.642 25.6121 135.474 25.4085C135.314 25.1992 135.092 25.0352 134.808 24.9165C134.529 24.7977 134.193 24.7327 133.797 24.7213L132.501 29.5059Z" fill="#FFB7C8"/>
</svg>
