<svg width="20" height="24" viewBox="0 0 20 24" fill="none" xmlns="http://www.w3.org/2000/svg">
<path d="M6.52053 5.83107L18.8182 3.27382L18.7842 1L6.41406 3.75464L6.52053 5.83107Z" fill="#3F3F3F"/>
<path d="M3.81347 22.6355C5.36731 22.6355 6.62694 21.3758 6.62694 19.822C6.62694 18.2682 5.36731 17.0085 3.81347 17.0085C2.25963 17.0085 1 18.2682 1 19.822C1 21.3758 2.25963 22.6355 3.81347 22.6355Z" fill="#3F3F3F"/>
<path d="M16.1865 19.9248C17.7404 19.9248 19 18.6652 19 17.1113C19 15.5575 17.7404 14.2979 16.1865 14.2979C14.6327 14.2979 13.373 15.5575 13.373 17.1113C13.373 18.6652 14.6327 19.9248 16.1865 19.9248Z" fill="#3F3F3F"/>
<path d="M18.8182 3.27382L6.44761 6.03089L6.41406 3.75464L18.7842 1L18.8182 3.27382Z" stroke="black" stroke-width="0.972341" stroke-miterlimit="10" stroke-linecap="round" stroke-linejoin="round"/>
<path d="M3.81347 22.6355C5.36731 22.6355 6.62694 21.3758 6.62694 19.822C6.62694 18.2682 5.36731 17.0085 3.81347 17.0085C2.25963 17.0085 1 18.2682 1 19.822C1 21.3758 2.25963 22.6355 3.81347 22.6355Z" stroke="black" stroke-width="0.972341" stroke-miterlimit="10" stroke-linecap="round" stroke-linejoin="round"/>
<path d="M6.41406 3.75464L6.62701 19.8221" stroke="black" stroke-width="0.972341" stroke-miterlimit="10" stroke-linecap="round" stroke-linejoin="round"/>
<path d="M16.1865 19.9248C17.7404 19.9248 19 18.6652 19 17.1113C19 15.5575 17.7404 14.2979 16.1865 14.2979C14.6327 14.2979 13.373 15.5575 13.373 17.1113C13.373 18.6652 14.6327 19.9248 16.1865 19.9248Z" stroke="black" stroke-width="0.972341" stroke-miterlimit="10" stroke-linecap="round" stroke-linejoin="round"/>
<path d="M18.7869 1.04272L18.9998 17.1106" stroke="black" stroke-width="0.972341" stroke-miterlimit="10" stroke-linecap="round" stroke-linejoin="round"/>
</svg>
