<svg width="32" height="23" viewBox="0 0 32 23" fill="none" xmlns="http://www.w3.org/2000/svg">
<path d="M2.85703 10.6402C2.85703 14.5864 6.05332 17.7827 9.99959 17.7827C11.2897 17.7827 12.4995 17.439 13.5441 16.8408L10.3299 12.9838C9.82549 12.3767 9.90585 11.475 10.513 10.9705C11.1201 10.4661 12.0218 10.5464 12.5263 11.1536L15.6913 14.9525C16.602 13.7561 17.1422 12.2607 17.1422 10.6402C17.1422 6.69393 13.9459 3.49764 9.99959 3.49764C6.05332 3.49764 2.85703 6.69393 2.85703 10.6402ZM15.3967 19.0595C13.8387 20.0594 11.9861 20.6398 9.99959 20.6398C4.4775 20.6398 0 16.1623 0 10.6402C0 5.11811 4.4775 0.640625 9.99959 0.640625C15.5217 0.640625 19.9992 5.11811 19.9992 10.6402C19.9992 13.1445 19.0796 15.4346 17.5573 17.189L19.6688 19.7246C20.1733 20.3317 20.0929 21.2335 19.4858 21.7379C18.8787 22.2424 17.9769 22.162 17.4725 21.5549L15.3922 19.0595H15.3967Z" fill="black"/>
<path d="M30 18.0693C29.4696 18.0693 28.9609 18.2801 28.5858 18.6551C28.2107 19.0302 28 19.5389 28 20.0693C28 20.5998 28.2107 21.1085 28.5858 21.4835C28.9609 21.8586 29.4696 22.0693 30 22.0693C31.11 22.0693 32 21.1793 32 20.0693C32 19.5389 31.7893 19.0302 31.4142 18.6551C31.0391 18.2801 30.5304 18.0693 30 18.0693Z" fill="black"/>
</svg>
