<svg width="25" height="20" viewBox="0 0 25 20" fill="none" xmlns="http://www.w3.org/2000/svg">
<path d="M24.8433 2.64894C23.96 3.05047 23.0078 3.31433 22.0212 3.44053C23.0307 2.8325 23.8108 1.86883 24.1779 0.710132C23.2257 1.28374 22.1703 1.68527 21.0575 1.91472C20.1512 0.928105 18.8778 0.354492 17.4323 0.354492C14.7363 0.354492 12.5336 2.55716 12.5336 5.27609C12.5336 5.66614 12.5795 6.04473 12.6598 6.40037C8.57568 6.19387 4.93898 4.23211 2.51833 1.2608C2.09386 1.98355 1.85294 2.8325 1.85294 3.72733C1.85294 5.4367 2.71336 6.95104 4.04414 7.81145C3.22961 7.81145 2.47244 7.58201 1.80705 7.23784V7.27226C1.80705 9.65849 3.50495 11.6547 5.75351 12.1021C5.03159 12.2996 4.2737 12.3271 3.53936 12.1824C3.85096 13.1604 4.4612 14.0161 5.28431 14.6293C6.10742 15.2425 7.10201 15.5824 8.12826 15.6011C6.38864 16.9783 4.23228 17.7227 2.01355 17.712C1.6235 17.712 1.23344 17.6891 0.843384 17.6432C3.02311 19.0428 5.61584 19.8573 8.39212 19.8573C17.4323 19.8573 22.3997 12.3545 22.3997 5.8497C22.3997 5.63173 22.3997 5.42523 22.3883 5.20725C23.3519 4.51892 24.1779 3.64703 24.8433 2.64894Z" fill="#7FBABA"/>
</svg>
