<svg width="25" height="18" viewBox="0 0 25 18" fill="none" xmlns="http://www.w3.org/2000/svg">
<path d="M10.4434 12.4277L16.6714 8.82773L10.4434 5.22773V12.4277ZM24.3154 3.03173C24.4714 3.59573 24.5794 4.35173 24.6514 5.31173C24.7354 6.27173 24.7714 7.09973 24.7714 7.81973L24.8434 8.82773C24.8434 11.4557 24.6514 13.3877 24.3154 14.6237C24.0154 15.7037 23.3194 16.3997 22.2394 16.6997C21.6754 16.8557 20.6434 16.9637 19.0594 17.0357C17.4994 17.1197 16.0714 17.1557 14.7514 17.1557L12.8434 17.2277C7.81538 17.2277 4.68338 17.0357 3.44738 16.6997C2.36738 16.3997 1.67138 15.7037 1.37138 14.6237C1.21538 14.0597 1.10738 13.3037 1.03538 12.3437C0.951384 11.3837 0.915384 10.5557 0.915384 9.83573L0.843384 8.82773C0.843384 6.19973 1.03538 4.26773 1.37138 3.03173C1.67138 1.95173 2.36738 1.25573 3.44738 0.955734C4.01138 0.799734 5.04338 0.691734 6.62738 0.619734C8.18738 0.535734 9.61538 0.499734 10.9354 0.499734L12.8434 0.427734C17.8714 0.427734 21.0034 0.619734 22.2394 0.955734C23.3194 1.25573 24.0154 1.95173 24.3154 3.03173Z" fill="#7FBABA"/>
</svg>
